<svg width="61" height="280" viewBox="0 0 61 280" fill="none" xmlns="http://www.w3.org/2000/svg">
    <path d="M3.91 23V10.24L1.2 11.87V10.22L3.91 8.6H5.4V23H3.91ZM13.893 23.3C13.0063 23.3 12.2063 23.0933 11.493 22.68C10.7863 22.2667 10.2263 21.7067 9.81297 21C9.39964 20.2867 9.19297 19.4867 9.19297 18.6V13C9.19297 12.1133 9.39964 11.3167 9.81297 10.61C10.2263 9.89667 10.7863 9.33333 11.493 8.92C12.2063 8.50667 13.0063 8.3 13.893 8.3C14.7796 8.3 15.5763 8.50667 16.283 8.92C16.9963 9.33333 17.5596 9.89667 17.973 10.61C18.3863 11.3167 18.593 12.1133 18.593 13V18.6C18.593 19.4867 18.3863 20.2867 17.973 21C17.5596 21.7067 16.9963 22.2667 16.283 22.68C15.5763 23.0933 14.7796 23.3 13.893 23.3ZM13.893 21.88C14.4863 21.88 15.0263 21.7367 15.513 21.45C15.9996 21.1567 16.3863 20.7667 16.673 20.28C16.9596 19.7933 17.103 19.2567 17.103 18.67V12.93C17.103 12.3367 16.9596 11.7967 16.673 11.31C16.3863 10.8233 15.9996 10.4367 15.513 10.15C15.0263 9.85667 14.4863 9.71 13.893 9.71C13.2996 9.71 12.7596 9.85667 12.273 10.15C11.7863 10.4367 11.3996 10.8233 11.113 11.31C10.8263 11.7967 10.683 12.3367 10.683 12.93V18.67C10.683 19.2567 10.8263 19.7933 11.113 20.28C11.3996 20.7667 11.7863 21.1567 12.273 21.45C12.7596 21.7367 13.2996 21.88 13.893 21.88ZM30.1039 23.3C29.2172 23.3 28.4172 23.0933 27.7039 22.68C26.9972 22.2667 26.4372 21.7067 26.0239 21C25.6106 20.2867 25.4039 19.4867 25.4039 18.6V13C25.4039 12.1133 25.6106 11.3167 26.0239 10.61C26.4372 9.89667 26.9972 9.33333 27.7039 8.92C28.4172 8.50667 29.2172 8.3 30.1039 8.3C30.9906 8.3 31.7872 8.50667 32.4939 8.92C33.2072 9.33333 33.7706 9.89667 34.1839 10.61C34.5972 11.3167 34.8039 12.1133 34.8039 13V18.6C34.8039 19.4867 34.5972 20.2867 34.1839 21C33.7706 21.7067 33.2072 22.2667 32.4939 22.68C31.7872 23.0933 30.9906 23.3 30.1039 23.3ZM30.1039 21.88C30.6972 21.88 31.2372 21.7367 31.7239 21.45C32.2106 21.1567 32.5972 20.7667 32.8839 20.28C33.1706 19.7933 33.3139 19.2567 33.3139 18.67V12.93C33.3139 12.3367 33.1706 11.7967 32.8839 11.31C32.5972 10.8233 32.2106 10.4367 31.7239 10.15C31.2372 9.85667 30.6972 9.71 30.1039 9.71C29.5106 9.71 28.9706 9.85667 28.4839 10.15C27.9972 10.4367 27.6106 10.8233 27.3239 11.31C27.0372 11.7967 26.8939 12.3367 26.8939 12.93V18.67C26.8939 19.2567 27.0372 19.7933 27.3239 20.28C27.6106 20.7667 27.9972 21.1567 28.4839 21.45C28.9706 21.7367 29.5106 21.88 30.1039 21.88ZM42.3109 23.3C41.4243 23.3 40.6243 23.0933 39.9109 22.68C39.2043 22.2667 38.6443 21.7067 38.2309 21C37.8176 20.2867 37.6109 19.4867 37.6109 18.6V13C37.6109 12.1133 37.8176 11.3167 38.2309 10.61C38.6443 9.89667 39.2043 9.33333 39.9109 8.92C40.6243 8.50667 41.4243 8.3 42.3109 8.3C43.1976 8.3 43.9943 8.50667 44.7009 8.92C45.4143 9.33333 45.9776 9.89667 46.3909 10.61C46.8043 11.3167 47.0109 12.1133 47.0109 13V18.6C47.0109 19.4867 46.8043 20.2867 46.3909 21C45.9776 21.7067 45.4143 22.2667 44.7009 22.68C43.9943 23.0933 43.1976 23.3 42.3109 23.3ZM42.3109 21.88C42.9043 21.88 43.4443 21.7367 43.9309 21.45C44.4176 21.1567 44.8043 20.7667 45.0909 20.28C45.3776 19.7933 45.5209 19.2567 45.5209 18.67V12.93C45.5209 12.3367 45.3776 11.7967 45.0909 11.31C44.8043 10.8233 44.4176 10.4367 43.9309 10.15C43.4443 9.85667 42.9043 9.71 42.3109 9.71C41.7176 9.71 41.1776 9.85667 40.6909 10.15C40.2043 10.4367 39.8176 10.8233 39.5309 11.31C39.2443 11.7967 39.1009 12.3367 39.1009 12.93V18.67C39.1009 19.2567 39.2443 19.7933 39.5309 20.28C39.8176 20.7667 40.2043 21.1567 40.6909 21.45C41.1776 21.7367 41.7176 21.88 42.3109 21.88ZM54.518 23.3C53.6313 23.3 52.8313 23.0933 52.118 22.68C51.4113 22.2667 50.8513 21.7067 50.438 21C50.0246 20.2867 49.818 19.4867 49.818 18.6V13C49.818 12.1133 50.0246 11.3167 50.438 10.61C50.8513 9.89667 51.4113 9.33333 52.118 8.92C52.8313 8.50667 53.6313 8.3 54.518 8.3C55.4046 8.3 56.2013 8.50667 56.908 8.92C57.6213 9.33333 58.1846 9.89667 58.598 10.61C59.0113 11.3167 59.218 12.1133 59.218 13V18.6C59.218 19.4867 59.0113 20.2867 58.598 21C58.1846 21.7067 57.6213 22.2667 56.908 22.68C56.2013 23.0933 55.4046 23.3 54.518 23.3ZM54.518 21.88C55.1113 21.88 55.6513 21.7367 56.138 21.45C56.6246 21.1567 57.0113 20.7667 57.298 20.28C57.5846 19.7933 57.728 19.2567 57.728 18.67V12.93C57.728 12.3367 57.5846 11.7967 57.298 11.31C57.0113 10.8233 56.6246 10.4367 56.138 10.15C55.6513 9.85667 55.1113 9.71 54.518 9.71C53.9246 9.71 53.3846 9.85667 52.898 10.15C52.4113 10.4367 52.0246 10.8233 51.738 11.31C51.4513 11.7967 51.308 12.3367 51.308 12.93V18.67C51.308 19.2567 51.4513 19.7933 51.738 20.28C52.0246 20.7667 52.4113 21.1567 52.898 21.45C53.3846 21.7367 53.9246 21.88 54.518 21.88Z" fill="black"/>
    <path d="M5.65 73.3C4.90333 73.3 4.21333 73.1467 3.58 72.84C2.94667 72.5333 2.40667 72.11 1.96 71.57C1.51333 71.03 1.19333 70.41 1 69.71L2.41 69.33C2.53667 69.85 2.76667 70.3 3.1 70.68C3.43333 71.0533 3.82333 71.3433 4.27 71.55C4.72333 71.7567 5.19667 71.86 5.69 71.86C6.33 71.86 6.90333 71.7067 7.41 71.4C7.92333 71.0867 8.33 70.6733 8.63 70.16C8.93 69.6467 9.08 69.0833 9.08 68.47C9.08 67.8367 8.92333 67.2667 8.61 66.76C8.29667 66.2467 7.88333 65.84 7.37 65.54C6.85667 65.24 6.29667 65.09 5.69 65.09C5.01 65.09 4.42333 65.24 3.93 65.54C3.43667 65.8333 3.04333 66.2033 2.75 66.65L1.41 66.09L1.85 58.6H9.54V60.01H2.5L3.23 59.32L2.84 65.71L2.47 65.22C2.88333 64.7467 3.38333 64.3767 3.97 64.11C4.55667 63.8433 5.17333 63.71 5.82 63.71C6.70667 63.71 7.50667 63.9233 8.22 64.35C8.93333 64.77 9.5 65.34 9.92 66.06C10.34 66.78 10.55 67.5833 10.55 68.47C10.55 69.35 10.3267 70.1567 9.88 70.89C9.43333 71.6167 8.84 72.2 8.1 72.64C7.36 73.08 6.54333 73.3 5.65 73.3ZM21.6469 73.3C20.7602 73.3 19.9602 73.0933 19.2469 72.68C18.5402 72.2667 17.9802 71.7067 17.5669 71C17.1535 70.2867 16.9469 69.4867 16.9469 68.6V63C16.9469 62.1133 17.1535 61.3167 17.5669 60.61C17.9802 59.8967 18.5402 59.3333 19.2469 58.92C19.9602 58.5067 20.7602 58.3 21.6469 58.3C22.5335 58.3 23.3302 58.5067 24.0369 58.92C24.7502 59.3333 25.3135 59.8967 25.7269 60.61C26.1402 61.3167 26.3469 62.1133 26.3469 63V68.6C26.3469 69.4867 26.1402 70.2867 25.7269 71C25.3135 71.7067 24.7502 72.2667 24.0369 72.68C23.3302 73.0933 22.5335 73.3 21.6469 73.3ZM21.6469 71.88C22.2402 71.88 22.7802 71.7367 23.2669 71.45C23.7535 71.1567 24.1402 70.7667 24.4269 70.28C24.7135 69.7933 24.8569 69.2567 24.8569 68.67V62.93C24.8569 62.3367 24.7135 61.7967 24.4269 61.31C24.1402 60.8233 23.7535 60.4367 23.2669 60.15C22.7802 59.8567 22.2402 59.71 21.6469 59.71C21.0535 59.71 20.5135 59.8567 20.0269 60.15C19.5402 60.4367 19.1535 60.8233 18.8669 61.31C18.5802 61.7967 18.4369 62.3367 18.4369 62.93V68.67C18.4369 69.2567 18.5802 69.7933 18.8669 70.28C19.1535 70.7667 19.5402 71.1567 20.0269 71.45C20.5135 71.7367 21.0535 71.88 21.6469 71.88ZM33.8539 73.3C32.9672 73.3 32.1672 73.0933 31.4539 72.68C30.7472 72.2667 30.1872 71.7067 29.7739 71C29.3606 70.2867 29.1539 69.4867 29.1539 68.6V63C29.1539 62.1133 29.3606 61.3167 29.7739 60.61C30.1872 59.8967 30.7472 59.3333 31.4539 58.92C32.1672 58.5067 32.9672 58.3 33.8539 58.3C34.7406 58.3 35.5372 58.5067 36.2439 58.92C36.9572 59.3333 37.5206 59.8967 37.9339 60.61C38.3472 61.3167 38.5539 62.1133 38.5539 63V68.6C38.5539 69.4867 38.3472 70.2867 37.9339 71C37.5206 71.7067 36.9572 72.2667 36.2439 72.68C35.5372 73.0933 34.7406 73.3 33.8539 73.3ZM33.8539 71.88C34.4472 71.88 34.9872 71.7367 35.4739 71.45C35.9606 71.1567 36.3472 70.7667 36.6339 70.28C36.9206 69.7933 37.0639 69.2567 37.0639 68.67V62.93C37.0639 62.3367 36.9206 61.7967 36.6339 61.31C36.3472 60.8233 35.9606 60.4367 35.4739 60.15C34.9872 59.8567 34.4472 59.71 33.8539 59.71C33.2606 59.71 32.7206 59.8567 32.2339 60.15C31.7472 60.4367 31.3606 60.8233 31.0739 61.31C30.7872 61.7967 30.6439 62.3367 30.6439 62.93V68.67C30.6439 69.2567 30.7872 69.7933 31.0739 70.28C31.3606 70.7667 31.7472 71.1567 32.2339 71.45C32.7206 71.7367 33.2606 71.88 33.8539 71.88ZM46.0609 73.3C45.1743 73.3 44.3743 73.0933 43.6609 72.68C42.9543 72.2667 42.3943 71.7067 41.9809 71C41.5676 70.2867 41.3609 69.4867 41.3609 68.6V63C41.3609 62.1133 41.5676 61.3167 41.9809 60.61C42.3943 59.8967 42.9543 59.3333 43.6609 58.92C44.3743 58.5067 45.1743 58.3 46.0609 58.3C46.9476 58.3 47.7443 58.5067 48.4509 58.92C49.1643 59.3333 49.7276 59.8967 50.1409 60.61C50.5543 61.3167 50.7609 62.1133 50.7609 63V68.6C50.7609 69.4867 50.5543 70.2867 50.1409 71C49.7276 71.7067 49.1643 72.2667 48.4509 72.68C47.7443 73.0933 46.9476 73.3 46.0609 73.3ZM46.0609 71.88C46.6543 71.88 47.1943 71.7367 47.6809 71.45C48.1676 71.1567 48.5543 70.7667 48.8409 70.28C49.1276 69.7933 49.2709 69.2567 49.2709 68.67V62.93C49.2709 62.3367 49.1276 61.7967 48.8409 61.31C48.5543 60.8233 48.1676 60.4367 47.6809 60.15C47.1943 59.8567 46.6543 59.71 46.0609 59.71C45.4676 59.71 44.9276 59.8567 44.4409 60.15C43.9543 60.4367 43.5676 60.8233 43.2809 61.31C42.9943 61.7967 42.8509 62.3367 42.8509 62.93V68.67C42.8509 69.2567 42.9943 69.7933 43.2809 70.28C43.5676 70.7667 43.9543 71.1567 44.4409 71.45C44.9276 71.7367 45.4676 71.88 46.0609 71.88Z" fill="black"/>
    <path d="M1 122.99L1.01 121.65L7.52 115.77C8.08 115.263 8.45 114.783 8.63 114.33C8.81667 113.87 8.91 113.39 8.91 112.89C8.91 112.297 8.77 111.76 8.49 111.28C8.21 110.8 7.83333 110.42 7.36 110.14C6.88667 109.853 6.35667 109.71 5.77 109.71C5.15667 109.71 4.61 109.857 4.13 110.15C3.65 110.443 3.27 110.83 2.99 111.31C2.71667 111.79 2.58333 112.313 2.59 112.88H1.09C1.09 112.007 1.29667 111.223 1.71 110.53C2.12333 109.837 2.68333 109.293 3.39 108.9C4.09667 108.5 4.89667 108.3 5.79 108.3C6.66333 108.3 7.44667 108.507 8.14 108.92C8.84 109.327 9.39 109.88 9.79 110.58C10.1967 111.273 10.4 112.047 10.4 112.9C10.4 113.5 10.3267 114.03 10.18 114.49C10.04 114.943 9.81667 115.367 9.51 115.76C9.21 116.147 8.82667 116.547 8.36 116.96L2.58 122.18L2.35 121.58H10.4V122.99H1ZM21.5102 123.3C20.6235 123.3 19.8235 123.093 19.1102 122.68C18.4035 122.267 17.8435 121.707 17.4302 121C17.0168 120.287 16.8102 119.487 16.8102 118.6V113C16.8102 112.113 17.0168 111.317 17.4302 110.61C17.8435 109.897 18.4035 109.333 19.1102 108.92C19.8235 108.507 20.6235 108.3 21.5102 108.3C22.3968 108.3 23.1935 108.507 23.9002 108.92C24.6135 109.333 25.1768 109.897 25.5902 110.61C26.0035 111.317 26.2102 112.113 26.2102 113V118.6C26.2102 119.487 26.0035 120.287 25.5902 121C25.1768 121.707 24.6135 122.267 23.9002 122.68C23.1935 123.093 22.3968 123.3 21.5102 123.3ZM21.5102 121.88C22.1035 121.88 22.6435 121.737 23.1302 121.45C23.6168 121.157 24.0035 120.767 24.2902 120.28C24.5768 119.793 24.7202 119.257 24.7202 118.67V112.93C24.7202 112.337 24.5768 111.797 24.2902 111.31C24.0035 110.823 23.6168 110.437 23.1302 110.15C22.6435 109.857 22.1035 109.71 21.5102 109.71C20.9168 109.71 20.3768 109.857 19.8902 110.15C19.4035 110.437 19.0168 110.823 18.7302 111.31C18.4435 111.797 18.3002 112.337 18.3002 112.93V118.67C18.3002 119.257 18.4435 119.793 18.7302 120.28C19.0168 120.767 19.4035 121.157 19.8902 121.45C20.3768 121.737 20.9168 121.88 21.5102 121.88ZM33.7172 123.3C32.8305 123.3 32.0305 123.093 31.3172 122.68C30.6105 122.267 30.0505 121.707 29.6372 121C29.2239 120.287 29.0172 119.487 29.0172 118.6V113C29.0172 112.113 29.2239 111.317 29.6372 110.61C30.0505 109.897 30.6105 109.333 31.3172 108.92C32.0305 108.507 32.8305 108.3 33.7172 108.3C34.6039 108.3 35.4005 108.507 36.1072 108.92C36.8205 109.333 37.3839 109.897 37.7972 110.61C38.2105 111.317 38.4172 112.113 38.4172 113V118.6C38.4172 119.487 38.2105 120.287 37.7972 121C37.3839 121.707 36.8205 122.267 36.1072 122.68C35.4005 123.093 34.6039 123.3 33.7172 123.3ZM33.7172 121.88C34.3105 121.88 34.8505 121.737 35.3372 121.45C35.8239 121.157 36.2105 120.767 36.4972 120.28C36.7839 119.793 36.9272 119.257 36.9272 118.67V112.93C36.9272 112.337 36.7839 111.797 36.4972 111.31C36.2105 110.823 35.8239 110.437 35.3372 110.15C34.8505 109.857 34.3105 109.71 33.7172 109.71C33.1239 109.71 32.5839 109.857 32.0972 110.15C31.6105 110.437 31.2239 110.823 30.9372 111.31C30.6505 111.797 30.5072 112.337 30.5072 112.93V118.67C30.5072 119.257 30.6505 119.793 30.9372 120.28C31.2239 120.767 31.6105 121.157 32.0972 121.45C32.5839 121.737 33.1239 121.88 33.7172 121.88ZM45.9242 123.3C45.0376 123.3 44.2376 123.093 43.5242 122.68C42.8176 122.267 42.2576 121.707 41.8442 121C41.4309 120.287 41.2242 119.487 41.2242 118.6V113C41.2242 112.113 41.4309 111.317 41.8442 110.61C42.2576 109.897 42.8176 109.333 43.5242 108.92C44.2376 108.507 45.0376 108.3 45.9242 108.3C46.8109 108.3 47.6076 108.507 48.3142 108.92C49.0276 109.333 49.5909 109.897 50.0042 110.61C50.4176 111.317 50.6242 112.113 50.6242 113V118.6C50.6242 119.487 50.4176 120.287 50.0042 121C49.5909 121.707 49.0276 122.267 48.3142 122.68C47.6076 123.093 46.8109 123.3 45.9242 123.3ZM45.9242 121.88C46.5176 121.88 47.0576 121.737 47.5442 121.45C48.0309 121.157 48.4176 120.767 48.7042 120.28C48.9909 119.793 49.1342 119.257 49.1342 118.67V112.93C49.1342 112.337 48.9909 111.797 48.7042 111.31C48.4176 110.823 48.0309 110.437 47.5442 110.15C47.0576 109.857 46.5176 109.71 45.9242 109.71C45.3309 109.71 44.7909 109.857 44.3042 110.15C43.8176 110.437 43.4309 110.823 43.1442 111.31C42.8576 111.797 42.7142 112.337 42.7142 112.93V118.67C42.7142 119.257 42.8576 119.793 43.1442 120.28C43.4309 120.767 43.8176 121.157 44.3042 121.45C44.7909 121.737 45.3309 121.88 45.9242 121.88Z" fill="black"/>
    <path d="M3.91 173V160.24L1.2 161.87V160.22L3.91 158.6H5.4V173H3.91ZM17.8969 173.3C17.0102 173.3 16.2102 173.093 15.4969 172.68C14.7902 172.267 14.2302 171.707 13.8169 171C13.4035 170.287 13.1969 169.487 13.1969 168.6V163C13.1969 162.113 13.4035 161.317 13.8169 160.61C14.2302 159.897 14.7902 159.333 15.4969 158.92C16.2102 158.507 17.0102 158.3 17.8969 158.3C18.7835 158.3 19.5802 158.507 20.2869 158.92C21.0002 159.333 21.5635 159.897 21.9769 160.61C22.3902 161.317 22.5969 162.113 22.5969 163V168.6C22.5969 169.487 22.3902 170.287 21.9769 171C21.5635 171.707 21.0002 172.267 20.2869 172.68C19.5802 173.093 18.7835 173.3 17.8969 173.3ZM17.8969 171.88C18.4902 171.88 19.0302 171.737 19.5169 171.45C20.0035 171.157 20.3902 170.767 20.6769 170.28C20.9635 169.793 21.1069 169.257 21.1069 168.67V162.93C21.1069 162.337 20.9635 161.797 20.6769 161.31C20.3902 160.823 20.0035 160.437 19.5169 160.15C19.0302 159.857 18.4902 159.71 17.8969 159.71C17.3035 159.71 16.7635 159.857 16.2769 160.15C15.7902 160.437 15.4035 160.823 15.1169 161.31C14.8302 161.797 14.6869 162.337 14.6869 162.93V168.67C14.6869 169.257 14.8302 169.793 15.1169 170.28C15.4035 170.767 15.7902 171.157 16.2769 171.45C16.7635 171.737 17.3035 171.88 17.8969 171.88ZM30.1039 173.3C29.2172 173.3 28.4172 173.093 27.7039 172.68C26.9972 172.267 26.4372 171.707 26.0239 171C25.6106 170.287 25.4039 169.487 25.4039 168.6V163C25.4039 162.113 25.6106 161.317 26.0239 160.61C26.4372 159.897 26.9972 159.333 27.7039 158.92C28.4172 158.507 29.2172 158.3 30.1039 158.3C30.9906 158.3 31.7872 158.507 32.4939 158.92C33.2072 159.333 33.7706 159.897 34.1839 160.61C34.5972 161.317 34.8039 162.113 34.8039 163V168.6C34.8039 169.487 34.5972 170.287 34.1839 171C33.7706 171.707 33.2072 172.267 32.4939 172.68C31.7872 173.093 30.9906 173.3 30.1039 173.3ZM30.1039 171.88C30.6972 171.88 31.2372 171.737 31.7239 171.45C32.2106 171.157 32.5972 170.767 32.8839 170.28C33.1706 169.793 33.3139 169.257 33.3139 168.67V162.93C33.3139 162.337 33.1706 161.797 32.8839 161.31C32.5972 160.823 32.2106 160.437 31.7239 160.15C31.2372 159.857 30.6972 159.71 30.1039 159.71C29.5106 159.71 28.9706 159.857 28.4839 160.15C27.9972 160.437 27.6106 160.823 27.3239 161.31C27.0372 161.797 26.8939 162.337 26.8939 162.93V168.67C26.8939 169.257 27.0372 169.793 27.3239 170.28C27.6106 170.767 27.9972 171.157 28.4839 171.45C28.9706 171.737 29.5106 171.88 30.1039 171.88ZM42.3109 173.3C41.4243 173.3 40.6243 173.093 39.9109 172.68C39.2043 172.267 38.6443 171.707 38.2309 171C37.8176 170.287 37.6109 169.487 37.6109 168.6V163C37.6109 162.113 37.8176 161.317 38.2309 160.61C38.6443 159.897 39.2043 159.333 39.9109 158.92C40.6243 158.507 41.4243 158.3 42.3109 158.3C43.1976 158.3 43.9943 158.507 44.7009 158.92C45.4143 159.333 45.9776 159.897 46.3909 160.61C46.8043 161.317 47.0109 162.113 47.0109 163V168.6C47.0109 169.487 46.8043 170.287 46.3909 171C45.9776 171.707 45.4143 172.267 44.7009 172.68C43.9943 173.093 43.1976 173.3 42.3109 173.3ZM42.3109 171.88C42.9043 171.88 43.4443 171.737 43.9309 171.45C44.4176 171.157 44.8043 170.767 45.0909 170.28C45.3776 169.793 45.5209 169.257 45.5209 168.67V162.93C45.5209 162.337 45.3776 161.797 45.0909 161.31C44.8043 160.823 44.4176 160.437 43.9309 160.15C43.4443 159.857 42.9043 159.71 42.3109 159.71C41.7176 159.71 41.1776 159.857 40.6909 160.15C40.2043 160.437 39.8176 160.823 39.5309 161.31C39.2443 161.797 39.1009 162.337 39.1009 162.93V168.67C39.1009 169.257 39.2443 169.793 39.5309 170.28C39.8176 170.767 40.2043 171.157 40.6909 171.45C41.1776 171.737 41.7176 171.88 42.3109 171.88Z" fill="black"/>
    <path d="M5.65 223.3C4.90333 223.3 4.21333 223.147 3.58 222.84C2.94667 222.533 2.40667 222.11 1.96 221.57C1.51333 221.03 1.19333 220.41 1 219.71L2.41 219.33C2.53667 219.85 2.76667 220.3 3.1 220.68C3.43333 221.053 3.82333 221.343 4.27 221.55C4.72333 221.757 5.19667 221.86 5.69 221.86C6.33 221.86 6.90333 221.707 7.41 221.4C7.92333 221.087 8.33 220.673 8.63 220.16C8.93 219.647 9.08 219.083 9.08 218.47C9.08 217.837 8.92333 217.267 8.61 216.76C8.29667 216.247 7.88333 215.84 7.37 215.54C6.85667 215.24 6.29667 215.09 5.69 215.09C5.01 215.09 4.42333 215.24 3.93 215.54C3.43667 215.833 3.04333 216.203 2.75 216.65L1.41 216.09L1.85 208.6H9.54V210.01H2.5L3.23 209.32L2.84 215.71L2.47 215.22C2.88333 214.747 3.38333 214.377 3.97 214.11C4.55667 213.843 5.17333 213.71 5.82 213.71C6.70667 213.71 7.50667 213.923 8.22 214.35C8.93333 214.77 9.5 215.34 9.92 216.06C10.34 216.78 10.55 217.583 10.55 218.47C10.55 219.35 10.3267 220.157 9.88 220.89C9.43333 221.617 8.84 222.2 8.1 222.64C7.36 223.08 6.54333 223.3 5.65 223.3ZM17.643 223.3C16.7563 223.3 15.9563 223.093 15.243 222.68C14.5363 222.267 13.9763 221.707 13.563 221C13.1496 220.287 12.943 219.487 12.943 218.6V213C12.943 212.113 13.1496 211.317 13.563 210.61C13.9763 209.897 14.5363 209.333 15.243 208.92C15.9563 208.507 16.7563 208.3 17.643 208.3C18.5296 208.3 19.3263 208.507 20.033 208.92C20.7463 209.333 21.3096 209.897 21.723 210.61C22.1363 211.317 22.343 212.113 22.343 213V218.6C22.343 219.487 22.1363 220.287 21.723 221C21.3096 221.707 20.7463 222.267 20.033 222.68C19.3263 223.093 18.5296 223.3 17.643 223.3ZM17.643 221.88C18.2363 221.88 18.7763 221.737 19.263 221.45C19.7496 221.157 20.1363 220.767 20.423 220.28C20.7096 219.793 20.853 219.257 20.853 218.67V212.93C20.853 212.337 20.7096 211.797 20.423 211.31C20.1363 210.823 19.7496 210.437 19.263 210.15C18.7763 209.857 18.2363 209.71 17.643 209.71C17.0496 209.71 16.5096 209.857 16.023 210.15C15.5363 210.437 15.1496 210.823 14.863 211.31C14.5763 211.797 14.433 212.337 14.433 212.93V218.67C14.433 219.257 14.5763 219.793 14.863 220.28C15.1496 220.767 15.5363 221.157 16.023 221.45C16.5096 221.737 17.0496 221.88 17.643 221.88ZM29.85 223.3C28.9633 223.3 28.1633 223.093 27.45 222.68C26.7433 222.267 26.1833 221.707 25.77 221C25.3567 220.287 25.15 219.487 25.15 218.6V213C25.15 212.113 25.3567 211.317 25.77 210.61C26.1833 209.897 26.7433 209.333 27.45 208.92C28.1633 208.507 28.9633 208.3 29.85 208.3C30.7367 208.3 31.5333 208.507 32.24 208.92C32.9533 209.333 33.5167 209.897 33.93 210.61C34.3433 211.317 34.55 212.113 34.55 213V218.6C34.55 219.487 34.3433 220.287 33.93 221C33.5167 221.707 32.9533 222.267 32.24 222.68C31.5333 223.093 30.7367 223.3 29.85 223.3ZM29.85 221.88C30.4433 221.88 30.9833 221.737 31.47 221.45C31.9567 221.157 32.3433 220.767 32.63 220.28C32.9167 219.793 33.06 219.257 33.06 218.67V212.93C33.06 212.337 32.9167 211.797 32.63 211.31C32.3433 210.823 31.9567 210.437 31.47 210.15C30.9833 209.857 30.4433 209.71 29.85 209.71C29.2567 209.71 28.7167 209.857 28.23 210.15C27.7433 210.437 27.3567 210.823 27.07 211.31C26.7833 211.797 26.64 212.337 26.64 212.93V218.67C26.64 219.257 26.7833 219.793 27.07 220.28C27.3567 220.767 27.7433 221.157 28.23 221.45C28.7167 221.737 29.2567 221.88 29.85 221.88Z" fill="black"/>
    <path d="M6.1 273.3C5.21333 273.3 4.41333 273.093 3.7 272.68C2.99333 272.267 2.43333 271.707 2.02 271C1.60667 270.287 1.4 269.487 1.4 268.6V263C1.4 262.113 1.60667 261.317 2.02 260.61C2.43333 259.897 2.99333 259.333 3.7 258.92C4.41333 258.507 5.21333 258.3 6.1 258.3C6.98667 258.3 7.78333 258.507 8.49 258.92C9.20333 259.333 9.76667 259.897 10.18 260.61C10.5933 261.317 10.8 262.113 10.8 263V268.6C10.8 269.487 10.5933 270.287 10.18 271C9.76667 271.707 9.20333 272.267 8.49 272.68C7.78333 273.093 6.98667 273.3 6.1 273.3ZM6.1 271.88C6.69333 271.88 7.23333 271.737 7.72 271.45C8.20667 271.157 8.59333 270.767 8.88 270.28C9.16667 269.793 9.31 269.257 9.31 268.67V262.93C9.31 262.337 9.16667 261.797 8.88 261.31C8.59333 260.823 8.20667 260.437 7.72 260.15C7.23333 259.857 6.69333 259.71 6.1 259.71C5.50667 259.71 4.96667 259.857 4.48 260.15C3.99333 260.437 3.60667 260.823 3.32 261.31C3.03333 261.797 2.89 262.337 2.89 262.93V268.67C2.89 269.257 3.03333 269.793 3.32 270.28C3.60667 270.767 3.99333 271.157 4.48 271.45C4.96667 271.737 5.50667 271.88 6.1 271.88Z" fill="black"/>
</svg>