<svg width="800" height="30" viewBox="0 0 902 30" fill="none" xmlns="http://www.w3.org/2000/svg">
    <path d="M11.21 23H9.75V17.53H4.96L4.45 17.41C3.38333 17.2033 2.56333 16.7 1.99 15.9C1.41667 15.1 1.13 14.1567 1.13 13.07C1.13 12.3167 1.26667 11.63 1.54 11.01C1.81333 10.39 2.21 9.87667 2.73 9.47C3.25667 9.05667 3.89333 8.79333 4.64 8.68C4.82667 8.64667 5.00667 8.62667 5.18 8.62C5.35333 8.60667 5.51 8.6 5.65 8.6H11.21V23ZM2.49 23H0.8L3.92 16.6L5.33 17.14L2.49 23ZM9.75 16.13V10.01H5.69C5.57667 10.01 5.43667 10.0167 5.27 10.03C5.11 10.0367 4.95333 10.0567 4.8 10.09C4.30667 10.1967 3.9 10.4 3.58 10.7C3.26667 11 3.03333 11.36 2.88 11.78C2.72667 12.1933 2.65 12.6233 2.65 13.07C2.65 13.5167 2.72667 13.9467 2.88 14.36C3.03333 14.7733 3.26667 15.13 3.58 15.43C3.9 15.73 4.30667 15.9333 4.8 16.04C4.95333 16.0733 5.11 16.0967 5.27 16.11C5.43667 16.1233 5.57667 16.13 5.69 16.13H9.75ZM14.0072 23V12.2H15.4772V16.89H21.5672V12.2H23.0372V23H21.5672V18.3H15.4772V23H14.0072ZM25.8236 23V12.2H30.2736C30.5003 12.2 30.7736 12.2133 31.0936 12.24C31.4203 12.2667 31.7236 12.3167 32.0036 12.39C32.6103 12.55 33.0969 12.8767 33.4636 13.37C33.8369 13.8633 34.0236 14.4567 34.0236 15.15C34.0236 15.5367 33.9636 15.8833 33.8436 16.19C33.7303 16.49 33.5669 16.75 33.3536 16.97C33.2536 17.0833 33.1436 17.1833 33.0236 17.27C32.9036 17.35 32.7869 17.4167 32.6736 17.47C32.8869 17.51 33.1169 17.6033 33.3636 17.75C33.7503 17.9767 34.0436 18.2833 34.2436 18.67C34.4436 19.05 34.5436 19.5133 34.5436 20.06C34.5436 20.8 34.3669 21.4033 34.0136 21.87C33.6603 22.3367 33.1869 22.6567 32.5936 22.83C32.3269 22.9033 32.0369 22.95 31.7236 22.97C31.4169 22.99 31.1269 23 30.8536 23H25.8236ZM27.3036 21.75H30.7836C30.9236 21.75 31.1003 21.74 31.3136 21.72C31.5269 21.6933 31.7169 21.66 31.8836 21.62C32.2769 21.52 32.5636 21.32 32.7436 21.02C32.9303 20.7133 33.0236 20.38 33.0236 20.02C33.0236 19.5467 32.8836 19.16 32.6036 18.86C32.3303 18.5533 31.9636 18.3667 31.5036 18.3C31.3503 18.2667 31.1903 18.2467 31.0236 18.24C30.8569 18.2333 30.7069 18.23 30.5736 18.23H27.3036V21.75ZM27.3036 16.97H30.3236C30.4969 16.97 30.6903 16.96 30.9036 16.94C31.1236 16.9133 31.3136 16.87 31.4736 16.81C31.8203 16.69 32.0736 16.4833 32.2336 16.19C32.4003 15.8967 32.4836 15.5767 32.4836 15.23C32.4836 14.85 32.3936 14.5167 32.2136 14.23C32.0403 13.9433 31.7769 13.7433 31.4236 13.63C31.1836 13.5433 30.9236 13.4933 30.6436 13.48C30.3703 13.4667 30.1969 13.46 30.1236 13.46H27.3036V16.97Z" fill="black"/>
    <path d="M78.37 23V21.09C77.63 21.2167 76.9133 21.1833 76.22 20.99C75.5333 20.79 74.9167 20.4467 74.37 19.96C73.83 19.4667 73.4 18.8367 73.08 18.07C72.76 17.2967 72.6 16.3933 72.6 15.36C72.6 14.3267 72.76 13.4233 73.08 12.65C73.4 11.8767 73.83 11.2433 74.37 10.75C74.9167 10.25 75.5333 9.90333 76.22 9.71C76.9133 9.51 77.63 9.47333 78.37 9.6V8.6H79.83V9.6C80.57 9.47333 81.2867 9.51 81.98 9.71C82.6733 9.90333 83.29 10.25 83.83 10.75C84.3767 11.2433 84.81 11.8767 85.13 12.65C85.45 13.4233 85.61 14.3267 85.61 15.36C85.61 16.3933 85.45 17.2967 85.13 18.07C84.81 18.8367 84.3767 19.4667 83.83 19.96C83.29 20.4467 82.6733 20.79 81.98 20.99C81.2867 21.1833 80.57 21.2167 79.83 21.09V23H78.37ZM78.37 19.69V10.97C77.7367 10.8767 77.1567 10.9233 76.63 11.11C76.11 11.29 75.6633 11.58 75.29 11.98C74.9167 12.38 74.6267 12.87 74.42 13.45C74.22 14.0233 74.12 14.66 74.12 15.36C74.12 16.06 74.22 16.6967 74.42 17.27C74.6267 17.8367 74.9167 18.3167 75.29 18.71C75.6633 19.1033 76.11 19.3867 76.63 19.56C77.1567 19.7333 77.7367 19.7767 78.37 19.69ZM79.83 19.69C80.47 19.7767 81.05 19.7333 81.57 19.56C82.09 19.38 82.5367 19.0967 82.91 18.71C83.29 18.3167 83.58 17.8367 83.78 17.27C83.9867 16.7033 84.09 16.0767 84.09 15.39C84.09 14.6967 83.9867 14.0633 83.78 13.49C83.58 12.91 83.29 12.4167 82.91 12.01C82.5367 11.6033 82.09 11.3067 81.57 11.12C81.05 10.9267 80.47 10.8767 79.83 10.97V19.69ZM92.1888 23.3C91.1354 23.3 90.2221 23.0667 89.4488 22.6C88.6821 22.1333 88.0854 21.4767 87.6588 20.63C87.2321 19.7833 87.0188 18.79 87.0188 17.65C87.0188 16.47 87.2288 15.45 87.6488 14.59C88.0688 13.73 88.6588 13.0667 89.4188 12.6C90.1854 12.1333 91.0888 11.9 92.1288 11.9C93.1954 11.9 94.1054 12.1467 94.8588 12.64C95.6121 13.1267 96.1821 13.8267 96.5688 14.74C96.9554 15.6533 97.1321 16.7433 97.0988 18.01H95.5988V17.49C95.5721 16.09 95.2688 15.0333 94.6888 14.32C94.1154 13.6067 93.2754 13.25 92.1688 13.25C91.0088 13.25 90.1188 13.6267 89.4988 14.38C88.8854 15.1333 88.5788 16.2067 88.5788 17.6C88.5788 18.96 88.8854 20.0167 89.4988 20.77C90.1188 21.5167 90.9954 21.89 92.1288 21.89C92.9021 21.89 93.5754 21.7133 94.1488 21.36C94.7288 21 95.1854 20.4833 95.5188 19.81L96.8888 20.34C96.4621 21.28 95.8321 22.01 94.9988 22.53C94.1721 23.0433 93.2354 23.3 92.1888 23.3ZM88.0588 18.01V16.78H96.3088V18.01H88.0588ZM99.308 23V12.2H103.758C103.985 12.2 104.258 12.2133 104.578 12.24C104.905 12.2667 105.208 12.3167 105.488 12.39C106.095 12.55 106.581 12.8767 106.948 13.37C107.321 13.8633 107.508 14.4567 107.508 15.15C107.508 15.5367 107.448 15.8833 107.328 16.19C107.215 16.49 107.051 16.75 106.838 16.97C106.738 17.0833 106.628 17.1833 106.508 17.27C106.388 17.35 106.271 17.4167 106.158 17.47C106.371 17.51 106.601 17.6033 106.848 17.75C107.235 17.9767 107.528 18.2833 107.728 18.67C107.928 19.05 108.028 19.5133 108.028 20.06C108.028 20.8 107.851 21.4033 107.498 21.87C107.145 22.3367 106.671 22.6567 106.078 22.83C105.811 22.9033 105.521 22.95 105.208 22.97C104.901 22.99 104.611 23 104.338 23H99.308ZM100.788 21.75H104.268C104.408 21.75 104.585 21.74 104.798 21.72C105.011 21.6933 105.201 21.66 105.368 21.62C105.761 21.52 106.048 21.32 106.228 21.02C106.415 20.7133 106.508 20.38 106.508 20.02C106.508 19.5467 106.368 19.16 106.088 18.86C105.815 18.5533 105.448 18.3667 104.988 18.3C104.835 18.2667 104.675 18.2467 104.508 18.24C104.341 18.2333 104.191 18.23 104.058 18.23H100.788V21.75ZM100.788 16.97H103.808C103.981 16.97 104.175 16.96 104.388 16.94C104.608 16.9133 104.798 16.87 104.958 16.81C105.305 16.69 105.558 16.4833 105.718 16.19C105.885 15.8967 105.968 15.5767 105.968 15.23C105.968 14.85 105.878 14.5167 105.698 14.23C105.525 13.9433 105.261 13.7433 104.908 13.63C104.668 13.5433 104.408 13.4933 104.128 13.48C103.855 13.4667 103.681 13.46 103.608 13.46H100.788V16.97Z" fill="black"/>
    <path d="M146.4 23V8.6H147.75L153.41 20.71L159.04 8.6H160.41V22.99H159.01V11.88L153.88 23H152.93L147.81 11.88V23H146.4ZM166.306 23.3C165.493 23.3 164.81 23.1533 164.256 22.86C163.71 22.5667 163.3 22.1767 163.026 21.69C162.753 21.2033 162.616 20.6733 162.616 20.1C162.616 19.5133 162.733 19.0133 162.966 18.6C163.206 18.18 163.53 17.8367 163.936 17.57C164.35 17.3033 164.826 17.1 165.366 16.96C165.913 16.8267 166.516 16.71 167.176 16.61C167.843 16.5033 168.493 16.4133 169.126 16.34C169.766 16.26 170.326 16.1833 170.806 16.11L170.286 16.43C170.306 15.3633 170.1 14.5733 169.666 14.06C169.233 13.5467 168.48 13.29 167.406 13.29C166.666 13.29 166.04 13.4567 165.526 13.79C165.02 14.1233 164.663 14.65 164.456 15.37L163.026 14.95C163.273 13.9833 163.77 13.2333 164.516 12.7C165.263 12.1667 166.233 11.9 167.426 11.9C168.413 11.9 169.25 12.0867 169.936 12.46C170.63 12.8267 171.12 13.36 171.406 14.06C171.54 14.3733 171.626 14.7233 171.666 15.11C171.706 15.4967 171.726 15.89 171.726 16.29V23H170.416V20.29L170.796 20.45C170.43 21.3767 169.86 22.0833 169.086 22.57C168.313 23.0567 167.386 23.3 166.306 23.3ZM166.476 22.03C167.163 22.03 167.763 21.9067 168.276 21.66C168.79 21.4133 169.203 21.0767 169.516 20.65C169.83 20.2167 170.033 19.73 170.126 19.19C170.206 18.8433 170.25 18.4633 170.256 18.05C170.263 17.63 170.266 17.3167 170.266 17.11L170.826 17.4C170.326 17.4667 169.783 17.5333 169.196 17.6C168.616 17.6667 168.043 17.7433 167.476 17.83C166.916 17.9167 166.41 18.02 165.956 18.14C165.65 18.2267 165.353 18.35 165.066 18.51C164.78 18.6633 164.543 18.87 164.356 19.13C164.176 19.39 164.086 19.7133 164.086 20.1C164.086 20.4133 164.163 20.7167 164.316 21.01C164.476 21.3033 164.73 21.5467 165.076 21.74C165.43 21.9333 165.896 22.03 166.476 22.03ZM179.18 23.3C178.186 23.3 177.346 23.05 176.66 22.55C175.973 22.0433 175.453 21.36 175.1 20.5C174.746 19.6333 174.57 18.6633 174.57 17.59C174.57 16.4967 174.746 15.5233 175.1 14.67C175.46 13.81 175.986 13.1333 176.68 12.64C177.373 12.1467 178.226 11.9 179.24 11.9C180.226 11.9 181.073 12.15 181.78 12.65C182.486 13.15 183.026 13.83 183.4 14.69C183.78 15.55 183.97 16.5167 183.97 17.59C183.97 18.67 183.78 19.64 183.4 20.5C183.02 21.36 182.473 22.0433 181.76 22.55C181.046 23.05 180.186 23.3 179.18 23.3ZM174.32 27.8V12.2H175.64V20.33H175.8V27.8H174.32ZM179.03 21.93C179.783 21.93 180.41 21.74 180.91 21.36C181.41 20.98 181.783 20.4633 182.03 19.81C182.283 19.15 182.41 18.41 182.41 17.59C182.41 16.7767 182.286 16.0433 182.04 15.39C181.793 14.7367 181.416 14.22 180.91 13.84C180.41 13.46 179.773 13.27 179 13.27C178.246 13.27 177.62 13.4533 177.12 13.82C176.626 14.1867 176.256 14.6967 176.01 15.35C175.763 15.9967 175.64 16.7433 175.64 17.59C175.64 18.4233 175.763 19.17 176.01 19.83C176.256 20.4833 176.63 20.9967 177.13 21.37C177.63 21.7433 178.263 21.93 179.03 21.93ZM189.096 23V13.56H185.266V12.2H194.396V13.56H190.566V23H189.096Z" fill="black"/>
    <path d="M231.4 23L236.36 8.6H238.31L243.27 23H241.74L237.03 9.42H237.61L232.93 23H231.4ZM233.61 19.51V18.13H241.05V19.51H233.61ZM245.066 23V12.2H253.656V23H252.186V13.61H246.536V23H245.066ZM261.312 23.3C260.319 23.3 259.479 23.05 258.793 22.55C258.106 22.0433 257.586 21.36 257.233 20.5C256.879 19.6333 256.703 18.6633 256.703 17.59C256.703 16.4967 256.879 15.5233 257.233 14.67C257.593 13.81 258.119 13.1333 258.813 12.64C259.506 12.1467 260.359 11.9 261.373 11.9C262.359 11.9 263.206 12.15 263.913 12.65C264.619 13.15 265.159 13.83 265.533 14.69C265.913 15.55 266.103 16.5167 266.103 17.59C266.103 18.67 265.913 19.64 265.533 20.5C265.153 21.36 264.606 22.0433 263.893 22.55C263.179 23.05 262.319 23.3 261.312 23.3ZM256.453 27.8V12.2H257.773V20.33H257.933V27.8H256.453ZM261.163 21.93C261.916 21.93 262.543 21.74 263.043 21.36C263.543 20.98 263.916 20.4633 264.163 19.81C264.416 19.15 264.543 18.41 264.543 17.59C264.543 16.7767 264.419 16.0433 264.173 15.39C263.926 14.7367 263.549 14.22 263.043 13.84C262.543 13.46 261.906 13.27 261.133 13.27C260.379 13.27 259.753 13.4533 259.253 13.82C258.759 14.1867 258.389 14.6967 258.143 15.35C257.896 15.9967 257.773 16.7433 257.773 17.59C257.773 18.4233 257.896 19.17 258.143 19.83C258.389 20.4833 258.763 20.9967 259.263 21.37C259.763 21.7433 260.396 21.93 261.163 21.93Z" fill="black"/>
    <path d="M304.4 23V8.6H305.75L311.41 20.71L317.04 8.6H318.41V22.99H317.01V11.88L311.88 23H310.93L305.81 11.88V23H304.4ZM324.306 23.3C323.493 23.3 322.81 23.1533 322.256 22.86C321.71 22.5667 321.3 22.1767 321.026 21.69C320.753 21.2033 320.616 20.6733 320.616 20.1C320.616 19.5133 320.733 19.0133 320.966 18.6C321.206 18.18 321.53 17.8367 321.936 17.57C322.35 17.3033 322.826 17.1 323.366 16.96C323.913 16.8267 324.516 16.71 325.176 16.61C325.843 16.5033 326.493 16.4133 327.126 16.34C327.766 16.26 328.326 16.1833 328.806 16.11L328.286 16.43C328.306 15.3633 328.1 14.5733 327.666 14.06C327.233 13.5467 326.48 13.29 325.406 13.29C324.666 13.29 324.04 13.4567 323.526 13.79C323.02 14.1233 322.663 14.65 322.456 15.37L321.026 14.95C321.273 13.9833 321.77 13.2333 322.516 12.7C323.263 12.1667 324.233 11.9 325.426 11.9C326.413 11.9 327.25 12.0867 327.936 12.46C328.63 12.8267 329.12 13.36 329.406 14.06C329.54 14.3733 329.626 14.7233 329.666 15.11C329.706 15.4967 329.726 15.89 329.726 16.29V23H328.416V20.29L328.796 20.45C328.43 21.3767 327.86 22.0833 327.086 22.57C326.313 23.0567 325.386 23.3 324.306 23.3ZM324.476 22.03C325.163 22.03 325.763 21.9067 326.276 21.66C326.79 21.4133 327.203 21.0767 327.516 20.65C327.83 20.2167 328.033 19.73 328.126 19.19C328.206 18.8433 328.25 18.4633 328.256 18.05C328.263 17.63 328.266 17.3167 328.266 17.11L328.826 17.4C328.326 17.4667 327.783 17.5333 327.196 17.6C326.616 17.6667 326.043 17.7433 325.476 17.83C324.916 17.9167 324.41 18.02 323.956 18.14C323.65 18.2267 323.353 18.35 323.066 18.51C322.78 18.6633 322.543 18.87 322.356 19.13C322.176 19.39 322.086 19.7133 322.086 20.1C322.086 20.4133 322.163 20.7167 322.316 21.01C322.476 21.3033 322.73 21.5467 323.076 21.74C323.43 21.9333 323.896 22.03 324.476 22.03ZM336.81 10.92C336.336 10.92 335.903 10.8033 335.51 10.57C335.116 10.3367 334.803 10.0267 334.57 9.64C334.343 9.24667 334.23 8.81333 334.23 8.34H335.45C335.45 8.71333 335.583 9.03333 335.85 9.3C336.116 9.56667 336.436 9.7 336.81 9.7C337.19 9.7 337.51 9.56667 337.77 9.3C338.036 9.03333 338.17 8.71333 338.17 8.34H339.39C339.39 8.81333 339.273 9.24667 339.04 9.64C338.813 10.0267 338.503 10.3367 338.11 10.57C337.716 10.8033 337.283 10.92 336.81 10.92ZM340.91 12.2V23H339.48V14.59L333.56 23H332.32V12.2H333.75V20.54L339.68 12.2H340.91Z" fill="black"/>
    <path d="M391.29 23H389.81V11.19L381.88 23H380.4V8.6H381.88V20.4L389.81 8.6H391.29V23ZM402.591 23.3C401.638 23.3 400.808 23.0967 400.101 22.69C399.395 22.2767 398.831 21.7 398.411 20.96C397.998 20.2133 397.748 19.3367 397.661 18.33H395.551V23H394.081V12.2H395.551V16.87H397.651C397.738 15.85 397.991 14.97 398.411 14.23C398.838 13.4833 399.405 12.91 400.111 12.51C400.825 12.1033 401.655 11.9 402.601 11.9C403.675 11.9 404.591 12.1433 405.351 12.63C406.118 13.1167 406.701 13.7867 407.101 14.64C407.508 15.4933 407.711 16.4733 407.711 17.58C407.711 18.7133 407.505 19.71 407.091 20.57C406.685 21.43 406.098 22.1 405.331 22.58C404.571 23.06 403.658 23.3 402.591 23.3ZM402.561 21.89C403.775 21.89 404.675 21.4967 405.261 20.71C405.855 19.9167 406.151 18.8767 406.151 17.59C406.151 16.2767 405.851 15.2367 405.251 14.47C404.658 13.6967 403.765 13.31 402.571 13.31C401.431 13.31 400.558 13.69 399.951 14.45C399.345 15.2033 399.041 16.2467 399.041 17.58C399.041 18.8867 399.338 19.9333 399.931 20.72C400.531 21.5 401.408 21.89 402.561 21.89ZM409.902 23V12.2H411.372V16.89H417.462V12.2H418.932V23H417.462V18.3H411.372V23H409.902ZM421.738 23L421.718 12.2H423.198V16.27H425.728C426.041 16.27 426.348 16.2767 426.648 16.29C426.955 16.3033 427.225 16.33 427.458 16.37C427.991 16.47 428.465 16.6467 428.878 16.9C429.298 17.1533 429.625 17.5033 429.858 17.95C430.098 18.3967 430.218 18.9567 430.218 19.63C430.218 20.5567 429.978 21.2867 429.498 21.82C429.025 22.3533 428.425 22.7 427.698 22.86C427.425 22.92 427.128 22.96 426.808 22.98C426.488 22.9933 426.171 23 425.858 23H421.738ZM423.198 21.74H425.798C426.025 21.74 426.278 21.7333 426.558 21.72C426.838 21.7067 427.085 21.67 427.298 21.61C427.651 21.51 427.971 21.31 428.258 21.01C428.551 20.7033 428.698 20.2433 428.698 19.63C428.698 19.0233 428.558 18.5667 428.278 18.26C427.998 17.9467 427.625 17.74 427.158 17.64C426.951 17.5933 426.728 17.5633 426.488 17.55C426.248 17.5367 426.018 17.53 425.798 17.53H423.198V21.74Z" fill="black"/>
    <path d="M480.29 23H478.81V11.19L470.88 23H469.4V8.6H470.88V20.4L478.81 8.6H480.29V23ZM491.591 23.3C490.638 23.3 489.808 23.0967 489.101 22.69C488.395 22.2767 487.831 21.7 487.411 20.96C486.998 20.2133 486.748 19.3367 486.661 18.33H484.551V23H483.081V12.2H484.551V16.87H486.651C486.738 15.85 486.991 14.97 487.411 14.23C487.838 13.4833 488.405 12.91 489.111 12.51C489.825 12.1033 490.655 11.9 491.601 11.9C492.675 11.9 493.591 12.1433 494.351 12.63C495.118 13.1167 495.701 13.7867 496.101 14.64C496.508 15.4933 496.711 16.4733 496.711 17.58C496.711 18.7133 496.505 19.71 496.091 20.57C495.685 21.43 495.098 22.1 494.331 22.58C493.571 23.06 492.658 23.3 491.591 23.3ZM491.561 21.89C492.775 21.89 493.675 21.4967 494.261 20.71C494.855 19.9167 495.151 18.8767 495.151 17.59C495.151 16.2767 494.851 15.2367 494.251 14.47C493.658 13.6967 492.765 13.31 491.571 13.31C490.431 13.31 489.558 13.69 488.951 14.45C488.345 15.2033 488.041 16.2467 488.041 17.58C488.041 18.8867 488.338 19.9333 488.931 20.72C489.531 21.5 490.408 21.89 491.561 21.89ZM497.912 23V21.71C498.312 21.7833 498.615 21.7667 498.822 21.66C499.035 21.5467 499.192 21.36 499.292 21.1C499.392 20.8333 499.475 20.5033 499.542 20.11C499.648 19.4567 499.745 18.7367 499.832 17.95C499.918 17.1633 499.995 16.2967 500.062 15.35C500.135 14.3967 500.208 13.3467 500.282 12.2H507.622V23H506.162V13.61H501.642C501.595 14.3167 501.542 15.02 501.482 15.72C501.422 16.42 501.358 17.0933 501.292 17.74C501.232 18.38 501.165 18.97 501.092 19.51C501.018 20.05 500.942 20.5167 500.862 20.91C500.742 21.5033 500.582 21.9767 500.382 22.33C500.188 22.6833 499.898 22.9167 499.512 23.03C499.125 23.1433 498.592 23.1333 497.912 23ZM510.426 23L510.406 12.2H511.886V16.27H514.416C514.729 16.27 515.036 16.2767 515.336 16.29C515.642 16.3033 515.912 16.33 516.146 16.37C516.679 16.47 517.152 16.6467 517.566 16.9C517.986 17.1533 518.312 17.5033 518.546 17.95C518.786 18.3967 518.906 18.9567 518.906 19.63C518.906 20.5567 518.666 21.2867 518.186 21.82C517.712 22.3533 517.112 22.7 516.386 22.86C516.112 22.92 515.816 22.96 515.496 22.98C515.176 22.9933 514.859 23 514.546 23H510.426ZM511.886 21.74H514.486C514.712 21.74 514.966 21.7333 515.246 21.72C515.526 21.7067 515.772 21.67 515.986 21.61C516.339 21.51 516.659 21.31 516.946 21.01C517.239 20.7033 517.386 20.2433 517.386 19.63C517.386 19.0233 517.246 18.5667 516.966 18.26C516.686 17.9467 516.312 17.74 515.846 17.64C515.639 17.5933 515.416 17.5633 515.176 17.55C514.936 17.5367 514.706 17.53 514.486 17.53H511.886V21.74Z" fill="black"/>
    <path d="M556.4 23L561.36 8.6H563.31L568.27 23H566.74L562.03 9.42H562.61L557.93 23H556.4ZM558.61 19.51V18.13H566.05V19.51H558.61ZM570.066 23V12.2H574.516C574.742 12.2 575.016 12.2133 575.336 12.24C575.662 12.2667 575.966 12.3167 576.246 12.39C576.852 12.55 577.339 12.8767 577.706 13.37C578.079 13.8633 578.266 14.4567 578.266 15.15C578.266 15.5367 578.206 15.8833 578.086 16.19C577.972 16.49 577.809 16.75 577.596 16.97C577.496 17.0833 577.386 17.1833 577.266 17.27C577.146 17.35 577.029 17.4167 576.916 17.47C577.129 17.51 577.359 17.6033 577.606 17.75C577.992 17.9767 578.286 18.2833 578.486 18.67C578.686 19.05 578.786 19.5133 578.786 20.06C578.786 20.8 578.609 21.4033 578.256 21.87C577.902 22.3367 577.429 22.6567 576.836 22.83C576.569 22.9033 576.279 22.95 575.966 22.97C575.659 22.99 575.369 23 575.096 23H570.066ZM571.546 21.75H575.026C575.166 21.75 575.342 21.74 575.556 21.72C575.769 21.6933 575.959 21.66 576.126 21.62C576.519 21.52 576.806 21.32 576.986 21.02C577.172 20.7133 577.266 20.38 577.266 20.02C577.266 19.5467 577.126 19.16 576.846 18.86C576.572 18.5533 576.206 18.3667 575.746 18.3C575.592 18.2667 575.432 18.2467 575.266 18.24C575.099 18.2333 574.949 18.23 574.816 18.23H571.546V21.75ZM571.546 16.97H574.566C574.739 16.97 574.932 16.96 575.146 16.94C575.366 16.9133 575.556 16.87 575.716 16.81C576.062 16.69 576.316 16.4833 576.476 16.19C576.642 15.8967 576.726 15.5767 576.726 15.23C576.726 14.85 576.636 14.5167 576.456 14.23C576.282 13.9433 576.019 13.7433 575.666 13.63C575.426 13.5433 575.166 13.4933 574.886 13.48C574.612 13.4667 574.439 13.46 574.366 13.46H571.546V16.97ZM580.779 23V12.2H588.179V13.61H582.249V23H580.779Z" fill="black"/>
    <path d="M632.23 23.3C630.797 23.3 629.587 22.9833 628.6 22.35C627.613 21.71 626.867 20.8267 626.36 19.7C625.853 18.5733 625.6 17.2733 625.6 15.8C625.6 14.3267 625.853 13.0267 626.36 11.9C626.867 10.7733 627.613 9.89333 628.6 9.26C629.587 8.62 630.797 8.3 632.23 8.3C633.903 8.3 635.27 8.73 636.33 9.59C637.39 10.4433 638.117 11.59 638.51 13.03L637.01 13.42C636.703 12.28 636.153 11.3767 635.36 10.71C634.567 10.0433 633.523 9.71 632.23 9.71C631.103 9.71 630.167 9.96667 629.42 10.48C628.673 10.9933 628.11 11.71 627.73 12.63C627.357 13.5433 627.163 14.6 627.15 15.8C627.143 17 627.327 18.0567 627.7 18.97C628.08 19.8833 628.647 20.6 629.4 21.12C630.16 21.6333 631.103 21.89 632.23 21.89C633.523 21.89 634.567 21.5567 635.36 20.89C636.153 20.2167 636.703 19.3133 637.01 18.18L638.51 18.57C638.117 20.01 637.39 21.16 636.33 22.02C635.27 22.8733 633.903 23.3 632.23 23.3ZM645.286 23.3C644.233 23.3 643.32 23.0667 642.546 22.6C641.78 22.1333 641.183 21.4767 640.756 20.63C640.33 19.7833 640.116 18.79 640.116 17.65C640.116 16.47 640.326 15.45 640.746 14.59C641.166 13.73 641.756 13.0667 642.516 12.6C643.283 12.1333 644.186 11.9 645.226 11.9C646.293 11.9 647.203 12.1467 647.956 12.64C648.71 13.1267 649.28 13.8267 649.666 14.74C650.053 15.6533 650.23 16.7433 650.196 18.01H648.696V17.49C648.67 16.09 648.366 15.0333 647.786 14.32C647.213 13.6067 646.373 13.25 645.266 13.25C644.106 13.25 643.216 13.6267 642.596 14.38C641.983 15.1333 641.676 16.2067 641.676 17.6C641.676 18.96 641.983 20.0167 642.596 20.77C643.216 21.5167 644.093 21.89 645.226 21.89C646 21.89 646.673 21.7133 647.246 21.36C647.826 21 648.283 20.4833 648.616 19.81L649.986 20.34C649.56 21.28 648.93 22.01 648.096 22.53C647.27 23.0433 646.333 23.3 645.286 23.3ZM641.156 18.01V16.78H649.406V18.01H641.156ZM652.406 23V12.2H653.876V16.89H659.966V12.2H661.436V23H659.966V18.3H653.876V23H652.406ZM667.162 23V13.56H663.332V12.2H672.462V13.56H668.632V23H667.162Z" fill="black"/>
    <path d="M716.23 23.3C714.797 23.3 713.587 22.9833 712.6 22.35C711.613 21.71 710.867 20.8267 710.36 19.7C709.853 18.5733 709.6 17.2733 709.6 15.8C709.6 14.3267 709.853 13.0267 710.36 11.9C710.867 10.7733 711.613 9.89333 712.6 9.26C713.587 8.62 714.797 8.3 716.23 8.3C717.67 8.3 718.88 8.62 719.86 9.26C720.847 9.89333 721.593 10.7733 722.1 11.9C722.613 13.0267 722.87 14.3267 722.87 15.8C722.87 17.2733 722.613 18.5733 722.1 19.7C721.593 20.8267 720.847 21.71 719.86 22.35C718.88 22.9833 717.67 23.3 716.23 23.3ZM716.23 21.89C717.357 21.89 718.297 21.6333 719.05 21.12C719.803 20.6067 720.367 19.8933 720.74 18.98C721.12 18.06 721.31 17 721.31 15.8C721.31 14.6 721.12 13.5433 720.74 12.63C720.367 11.7167 719.803 11.0033 719.05 10.49C718.297 9.97667 717.357 9.71667 716.23 9.71C715.103 9.71 714.167 9.96667 713.42 10.48C712.673 10.9933 712.11 11.71 711.73 12.63C711.357 13.5433 711.167 14.6 711.16 15.8C711.153 17 711.337 18.0567 711.71 18.97C712.09 19.8767 712.657 20.59 713.41 21.11C714.163 21.6233 715.103 21.8833 716.23 21.89ZM724.863 23L724.873 12.2H726.353V17.4L731.173 12.2H733.133L728.073 17.6L733.793 23H731.653L726.353 17.8V23H724.863ZM737.725 23V13.56H733.895V12.2H743.025V13.56H739.195V23H737.725Z" fill="black"/>
    <path d="M781.4 23V8.6H782.87V15.09H790.83V8.6H792.29V23H790.83V16.5H782.87V23H781.4ZM799.601 23.3C798.528 23.3 797.611 23.0567 796.851 22.57C796.091 22.0833 795.508 21.41 795.101 20.55C794.695 19.69 794.491 18.7033 794.491 17.59C794.491 16.4567 794.698 15.4633 795.111 14.61C795.525 13.7567 796.111 13.0933 796.871 12.62C797.638 12.14 798.548 11.9 799.601 11.9C800.681 11.9 801.601 12.1433 802.361 12.63C803.128 13.11 803.711 13.78 804.111 14.64C804.518 15.4933 804.721 16.4767 804.721 17.59C804.721 18.7233 804.518 19.72 804.111 20.58C803.705 21.4333 803.118 22.1 802.351 22.58C801.585 23.06 800.668 23.3 799.601 23.3ZM799.601 21.89C800.801 21.89 801.695 21.4933 802.281 20.7C802.868 19.9 803.161 18.8633 803.161 17.59C803.161 16.2833 802.865 15.2433 802.271 14.47C801.685 13.6967 800.795 13.31 799.601 13.31C798.795 13.31 798.128 13.4933 797.601 13.86C797.081 14.22 796.691 14.7233 796.431 15.37C796.178 16.01 796.051 16.75 796.051 17.59C796.051 18.89 796.351 19.9333 796.951 20.72C797.551 21.5 798.435 21.89 799.601 21.89ZM813.697 23V18.93H811.177C810.884 18.93 810.581 18.92 810.267 18.9C809.961 18.8733 809.674 18.8367 809.407 18.79C808.647 18.6433 808.001 18.31 807.467 17.79C806.941 17.2633 806.677 16.5367 806.677 15.61C806.677 14.7033 806.924 13.9767 807.417 13.43C807.911 12.8767 808.507 12.5167 809.207 12.35C809.527 12.2767 809.851 12.2333 810.177 12.22C810.511 12.2067 810.797 12.2 811.037 12.2H815.167L815.177 23H813.697ZM806.327 23L809.337 18.47H810.967L807.937 23H806.327ZM811.097 17.67H813.697V13.46H811.097C810.937 13.46 810.714 13.4667 810.427 13.48C810.141 13.4933 809.871 13.5367 809.617 13.61C809.397 13.6767 809.177 13.7933 808.957 13.96C808.744 14.12 808.564 14.3367 808.417 14.61C808.271 14.8767 808.197 15.2033 808.197 15.59C808.197 16.13 808.344 16.5633 808.637 16.89C808.937 17.21 809.311 17.43 809.757 17.55C809.997 17.6033 810.237 17.6367 810.477 17.65C810.717 17.6633 810.924 17.67 811.097 17.67ZM822.312 23.31C821.305 23.3033 820.442 23.0833 819.722 22.65C819.002 22.2167 818.442 21.57 818.042 20.71C817.649 19.85 817.435 18.7767 817.402 17.49C817.382 16.9233 817.395 16.3067 817.442 15.64C817.489 14.9667 817.562 14.3267 817.662 13.72C817.762 13.1133 817.882 12.62 818.022 12.24C818.195 11.7467 818.442 11.2867 818.762 10.86C819.089 10.4267 819.465 10.0733 819.892 9.8C820.305 9.52 820.772 9.30333 821.292 9.15C821.819 8.99 822.365 8.86667 822.932 8.78C823.505 8.69333 824.072 8.61667 824.632 8.55C825.199 8.48333 825.722 8.4 826.202 8.3L826.362 9.63C825.995 9.70333 825.562 9.77 825.062 9.83C824.562 9.89 824.039 9.96333 823.492 10.05C822.945 10.13 822.422 10.24 821.922 10.38C821.422 10.52 820.995 10.7033 820.642 10.93C820.102 11.2567 819.685 11.75 819.392 12.41C819.105 13.07 818.929 13.8267 818.862 14.68C819.275 14.0333 819.822 13.5467 820.502 13.22C821.189 12.8933 821.932 12.73 822.732 12.73C823.705 12.73 824.542 12.9533 825.242 13.4C825.949 13.8467 826.492 14.4667 826.872 15.26C827.252 16.0533 827.442 16.9633 827.442 17.99C827.442 19.0633 827.232 20 826.812 20.8C826.399 21.6 825.809 22.22 825.042 22.66C824.275 23.0933 823.365 23.31 822.312 23.31ZM822.422 21.9C823.555 21.9 824.415 21.5467 825.002 20.84C825.595 20.1333 825.892 19.1933 825.892 18.02C825.892 16.82 825.585 15.8733 824.972 15.18C824.365 14.4867 823.509 14.14 822.402 14.14C821.295 14.14 820.445 14.4867 819.852 15.18C819.259 15.8733 818.962 16.82 818.962 18.02C818.962 19.22 819.259 20.1667 819.852 20.86C820.445 21.5533 821.302 21.9 822.422 21.9Z" fill="black"/>
    <path d="M865.73 25.4V21.59C866.29 21.59 866.74 21.45 867.08 21.17C867.42 20.8833 867.68 20.5033 867.86 20.03C868.04 19.5567 868.177 19.0267 868.27 18.44C868.363 17.8467 868.443 17.2467 868.51 16.64C868.603 15.7533 868.677 14.8967 868.73 14.07C868.79 13.2433 868.84 12.3867 868.88 11.5C868.927 10.6133 868.98 9.64333 869.04 8.59L877.92 8.6V21.59H878.95V25.4H877.49V23H867.2V25.4H865.73ZM868.54 21.59H876.45V10.01L870.41 10C870.37 10.8133 870.33 11.6 870.29 12.36C870.25 13.12 870.203 13.8867 870.15 14.66C870.097 15.4333 870.027 16.24 869.94 17.08C869.867 17.8467 869.78 18.5167 869.68 19.09C869.58 19.6633 869.44 20.1533 869.26 20.56C869.087 20.9667 868.847 21.31 868.54 21.59ZM885.716 23.3C884.663 23.3 883.749 23.0667 882.976 22.6C882.209 22.1333 881.613 21.4767 881.186 20.63C880.759 19.7833 880.546 18.79 880.546 17.65C880.546 16.47 880.756 15.45 881.176 14.59C881.596 13.73 882.186 13.0667 882.946 12.6C883.713 12.1333 884.616 11.9 885.656 11.9C886.723 11.9 887.633 12.1467 888.386 12.64C889.139 13.1267 889.709 13.8267 890.096 14.74C890.483 15.6533 890.659 16.7433 890.626 18.01H889.126V17.49C889.099 16.09 888.796 15.0333 888.216 14.32C887.643 13.6067 886.803 13.25 885.696 13.25C884.536 13.25 883.646 13.6267 883.026 14.38C882.413 15.1333 882.106 16.2067 882.106 17.6C882.106 18.96 882.413 20.0167 883.026 20.77C883.646 21.5167 884.523 21.89 885.656 21.89C886.429 21.89 887.103 21.7133 887.676 21.36C888.256 21 888.713 20.4833 889.046 19.81L890.416 20.34C889.989 21.28 889.359 22.01 888.526 22.53C887.699 23.0433 886.763 23.3 885.716 23.3ZM881.586 18.01V16.78H889.836V18.01H881.586ZM892.835 23L892.845 12.2H894.325V17.4L899.145 12.2H901.105L896.045 17.6L901.765 23H899.625L894.325 17.8V23H892.835Z" fill="black"/>
</svg>