<svg width="820" height="30" viewBox="0 0 820 30" fill="none" xmlns="http://www.w3.org/2000/svg">
    <path d="M11.21 23H9.75V17.53H4.96L4.45 17.41C3.38333 17.2033 2.56333 16.7 1.99 15.9C1.41667 15.1 1.13 14.1567 1.13 13.07C1.13 12.3167 1.26667 11.63 1.54 11.01C1.81333 10.39 2.21 9.87667 2.73 9.47C3.25667 9.05667 3.89333 8.79333 4.64 8.68C4.82667 8.64667 5.00667 8.62667 5.18 8.62C5.35333 8.60667 5.51 8.6 5.65 8.6H11.21V23ZM2.49 23H0.8L3.92 16.6L5.33 17.14L2.49 23ZM9.75 16.13V10.01H5.69C5.57667 10.01 5.43667 10.0167 5.27 10.03C5.11 10.0367 4.95333 10.0567 4.8 10.09C4.30667 10.1967 3.9 10.4 3.58 10.7C3.26667 11 3.03333 11.36 2.88 11.78C2.72667 12.1933 2.65 12.6233 2.65 13.07C2.65 13.5167 2.72667 13.9467 2.88 14.36C3.03333 14.7733 3.26667 15.13 3.58 15.43C3.9 15.73 4.30667 15.9333 4.8 16.04C4.95333 16.0733 5.11 16.0967 5.27 16.11C5.43667 16.1233 5.57667 16.13 5.69 16.13H9.75ZM14.0072 23V12.2H15.4772V16.89H21.5672V12.2H23.0372V23H21.5672V18.3H15.4772V23H14.0072ZM25.8236 23V12.2H30.2736C30.5003 12.2 30.7736 12.2133 31.0936 12.24C31.4203 12.2667 31.7236 12.3167 32.0036 12.39C32.6103 12.55 33.0969 12.8767 33.4636 13.37C33.8369 13.8633 34.0236 14.4567 34.0236 15.15C34.0236 15.5367 33.9636 15.8833 33.8436 16.19C33.7303 16.49 33.5669 16.75 33.3536 16.97C33.2536 17.0833 33.1436 17.1833 33.0236 17.27C32.9036 17.35 32.7869 17.4167 32.6736 17.47C32.8869 17.51 33.1169 17.6033 33.3636 17.75C33.7503 17.9767 34.0436 18.2833 34.2436 18.67C34.4436 19.05 34.5436 19.5133 34.5436 20.06C34.5436 20.8 34.3669 21.4033 34.0136 21.87C33.6603 22.3367 33.1869 22.6567 32.5936 22.83C32.3269 22.9033 32.0369 22.95 31.7236 22.97C31.4169 22.99 31.1269 23 30.8536 23H25.8236ZM27.3036 21.75H30.7836C30.9236 21.75 31.1003 21.74 31.3136 21.72C31.5269 21.6933 31.7169 21.66 31.8836 21.62C32.2769 21.52 32.5636 21.32 32.7436 21.02C32.9303 20.7133 33.0236 20.38 33.0236 20.02C33.0236 19.5467 32.8836 19.16 32.6036 18.86C32.3303 18.5533 31.9636 18.3667 31.5036 18.3C31.3503 18.2667 31.1903 18.2467 31.0236 18.24C30.8569 18.2333 30.7069 18.23 30.5736 18.23H27.3036V21.75ZM27.3036 16.97H30.3236C30.4969 16.97 30.6903 16.96 30.9036 16.94C31.1236 16.9133 31.3136 16.87 31.4736 16.81C31.8203 16.69 32.0736 16.4833 32.2336 16.19C32.4003 15.8967 32.4836 15.5767 32.4836 15.23C32.4836 14.85 32.3936 14.5167 32.2136 14.23C32.0403 13.9433 31.7769 13.7433 31.4236 13.63C31.1836 13.5433 30.9236 13.4933 30.6436 13.48C30.3703 13.4667 30.1969 13.46 30.1236 13.46H27.3036V16.97Z" fill="black"/>
    <path d="M152.37 23V21.09C151.63 21.2167 150.913 21.1833 150.22 20.99C149.533 20.79 148.917 20.4467 148.37 19.96C147.83 19.4667 147.4 18.8367 147.08 18.07C146.76 17.2967 146.6 16.3933 146.6 15.36C146.6 14.3267 146.76 13.4233 147.08 12.65C147.4 11.8767 147.83 11.2433 148.37 10.75C148.917 10.25 149.533 9.90333 150.22 9.71C150.913 9.51 151.63 9.47333 152.37 9.6V8.6H153.83V9.6C154.57 9.47333 155.287 9.51 155.98 9.71C156.673 9.90333 157.29 10.25 157.83 10.75C158.377 11.2433 158.81 11.8767 159.13 12.65C159.45 13.4233 159.61 14.3267 159.61 15.36C159.61 16.3933 159.45 17.2967 159.13 18.07C158.81 18.8367 158.377 19.4667 157.83 19.96C157.29 20.4467 156.673 20.79 155.98 20.99C155.287 21.1833 154.57 21.2167 153.83 21.09V23H152.37ZM152.37 19.69V10.97C151.737 10.8767 151.157 10.9233 150.63 11.11C150.11 11.29 149.663 11.58 149.29 11.98C148.917 12.38 148.627 12.87 148.42 13.45C148.22 14.0233 148.12 14.66 148.12 15.36C148.12 16.06 148.22 16.6967 148.42 17.27C148.627 17.8367 148.917 18.3167 149.29 18.71C149.663 19.1033 150.11 19.3867 150.63 19.56C151.157 19.7333 151.737 19.7767 152.37 19.69ZM153.83 19.69C154.47 19.7767 155.05 19.7333 155.57 19.56C156.09 19.38 156.537 19.0967 156.91 18.71C157.29 18.3167 157.58 17.8367 157.78 17.27C157.987 16.7033 158.09 16.0767 158.09 15.39C158.09 14.6967 157.987 14.0633 157.78 13.49C157.58 12.91 157.29 12.4167 156.91 12.01C156.537 11.6033 156.09 11.3067 155.57 11.12C155.05 10.9267 154.47 10.8767 153.83 10.97V19.69ZM166.189 23.3C165.135 23.3 164.222 23.0667 163.449 22.6C162.682 22.1333 162.085 21.4767 161.659 20.63C161.232 19.7833 161.019 18.79 161.019 17.65C161.019 16.47 161.229 15.45 161.649 14.59C162.069 13.73 162.659 13.0667 163.419 12.6C164.185 12.1333 165.089 11.9 166.129 11.9C167.195 11.9 168.105 12.1467 168.859 12.64C169.612 13.1267 170.182 13.8267 170.569 14.74C170.955 15.6533 171.132 16.7433 171.099 18.01H169.599V17.49C169.572 16.09 169.269 15.0333 168.689 14.32C168.115 13.6067 167.275 13.25 166.169 13.25C165.009 13.25 164.119 13.6267 163.499 14.38C162.885 15.1333 162.579 16.2067 162.579 17.6C162.579 18.96 162.885 20.0167 163.499 20.77C164.119 21.5167 164.995 21.89 166.129 21.89C166.902 21.89 167.575 21.7133 168.149 21.36C168.729 21 169.185 20.4833 169.519 19.81L170.889 20.34C170.462 21.28 169.832 22.01 168.999 22.53C168.172 23.0433 167.235 23.3 166.189 23.3ZM162.059 18.01V16.78H170.309V18.01H162.059ZM173.308 23V12.2H177.758C177.985 12.2 178.258 12.2133 178.578 12.24C178.905 12.2667 179.208 12.3167 179.488 12.39C180.095 12.55 180.581 12.8767 180.948 13.37C181.321 13.8633 181.508 14.4567 181.508 15.15C181.508 15.5367 181.448 15.8833 181.328 16.19C181.215 16.49 181.051 16.75 180.838 16.97C180.738 17.0833 180.628 17.1833 180.508 17.27C180.388 17.35 180.271 17.4167 180.158 17.47C180.371 17.51 180.601 17.6033 180.848 17.75C181.235 17.9767 181.528 18.2833 181.728 18.67C181.928 19.05 182.028 19.5133 182.028 20.06C182.028 20.8 181.851 21.4033 181.498 21.87C181.145 22.3367 180.671 22.6567 180.078 22.83C179.811 22.9033 179.521 22.95 179.208 22.97C178.901 22.99 178.611 23 178.338 23H173.308ZM174.788 21.75H178.268C178.408 21.75 178.585 21.74 178.798 21.72C179.011 21.6933 179.201 21.66 179.368 21.62C179.761 21.52 180.048 21.32 180.228 21.02C180.415 20.7133 180.508 20.38 180.508 20.02C180.508 19.5467 180.368 19.16 180.088 18.86C179.815 18.5533 179.448 18.3667 178.988 18.3C178.835 18.2667 178.675 18.2467 178.508 18.24C178.341 18.2333 178.191 18.23 178.058 18.23H174.788V21.75ZM174.788 16.97H177.808C177.981 16.97 178.175 16.96 178.388 16.94C178.608 16.9133 178.798 16.87 178.958 16.81C179.305 16.69 179.558 16.4833 179.718 16.19C179.885 15.8967 179.968 15.5767 179.968 15.23C179.968 14.85 179.878 14.5167 179.698 14.23C179.525 13.9433 179.261 13.7433 178.908 13.63C178.668 13.5433 178.408 13.4933 178.128 13.48C177.855 13.4667 177.681 13.46 177.608 13.46H174.788V16.97Z" fill="black"/>
    <path d="M294.4 23V8.6H295.75L301.41 20.71L307.04 8.6H308.41V22.99H307.01V11.88L301.88 23H300.93L295.81 11.88V23H294.4ZM314.306 23.3C313.493 23.3 312.81 23.1533 312.256 22.86C311.71 22.5667 311.3 22.1767 311.026 21.69C310.753 21.2033 310.616 20.6733 310.616 20.1C310.616 19.5133 310.733 19.0133 310.966 18.6C311.206 18.18 311.53 17.8367 311.936 17.57C312.35 17.3033 312.826 17.1 313.366 16.96C313.913 16.8267 314.516 16.71 315.176 16.61C315.843 16.5033 316.493 16.4133 317.126 16.34C317.766 16.26 318.326 16.1833 318.806 16.11L318.286 16.43C318.306 15.3633 318.1 14.5733 317.666 14.06C317.233 13.5467 316.48 13.29 315.406 13.29C314.666 13.29 314.04 13.4567 313.526 13.79C313.02 14.1233 312.663 14.65 312.456 15.37L311.026 14.95C311.273 13.9833 311.77 13.2333 312.516 12.7C313.263 12.1667 314.233 11.9 315.426 11.9C316.413 11.9 317.25 12.0867 317.936 12.46C318.63 12.8267 319.12 13.36 319.406 14.06C319.54 14.3733 319.626 14.7233 319.666 15.11C319.706 15.4967 319.726 15.89 319.726 16.29V23H318.416V20.29L318.796 20.45C318.43 21.3767 317.86 22.0833 317.086 22.57C316.313 23.0567 315.386 23.3 314.306 23.3ZM314.476 22.03C315.163 22.03 315.763 21.9067 316.276 21.66C316.79 21.4133 317.203 21.0767 317.516 20.65C317.83 20.2167 318.033 19.73 318.126 19.19C318.206 18.8433 318.25 18.4633 318.256 18.05C318.263 17.63 318.266 17.3167 318.266 17.11L318.826 17.4C318.326 17.4667 317.783 17.5333 317.196 17.6C316.616 17.6667 316.043 17.7433 315.476 17.83C314.916 17.9167 314.41 18.02 313.956 18.14C313.65 18.2267 313.353 18.35 313.066 18.51C312.78 18.6633 312.543 18.87 312.356 19.13C312.176 19.39 312.086 19.7133 312.086 20.1C312.086 20.4133 312.163 20.7167 312.316 21.01C312.476 21.3033 312.73 21.5467 313.076 21.74C313.43 21.9333 313.896 22.03 314.476 22.03ZM327.18 23.3C326.186 23.3 325.346 23.05 324.66 22.55C323.973 22.0433 323.453 21.36 323.1 20.5C322.746 19.6333 322.57 18.6633 322.57 17.59C322.57 16.4967 322.746 15.5233 323.1 14.67C323.46 13.81 323.986 13.1333 324.68 12.64C325.373 12.1467 326.226 11.9 327.24 11.9C328.226 11.9 329.073 12.15 329.78 12.65C330.486 13.15 331.026 13.83 331.4 14.69C331.78 15.55 331.97 16.5167 331.97 17.59C331.97 18.67 331.78 19.64 331.4 20.5C331.02 21.36 330.473 22.0433 329.76 22.55C329.046 23.05 328.186 23.3 327.18 23.3ZM322.32 27.8V12.2H323.64V20.33H323.8V27.8H322.32ZM327.03 21.93C327.783 21.93 328.41 21.74 328.91 21.36C329.41 20.98 329.783 20.4633 330.03 19.81C330.283 19.15 330.41 18.41 330.41 17.59C330.41 16.7767 330.286 16.0433 330.04 15.39C329.793 14.7367 329.416 14.22 328.91 13.84C328.41 13.46 327.773 13.27 327 13.27C326.246 13.27 325.62 13.4533 325.12 13.82C324.626 14.1867 324.256 14.6967 324.01 15.35C323.763 15.9967 323.64 16.7433 323.64 17.59C323.64 18.4233 323.763 19.17 324.01 19.83C324.256 20.4833 324.63 20.9967 325.13 21.37C325.63 21.7433 326.263 21.93 327.03 21.93ZM337.096 23V13.56H333.266V12.2H342.396V13.56H338.566V23H337.096Z" fill="black"/>
    <path d="M453.4 23L458.36 8.6H460.31L465.27 23H463.74L459.03 9.42H459.61L454.93 23H453.4ZM455.61 19.51V18.13H463.05V19.51H455.61ZM467.066 23V12.2H475.656V23H474.186V13.61H468.536V23H467.066ZM483.312 23.3C482.319 23.3 481.479 23.05 480.793 22.55C480.106 22.0433 479.586 21.36 479.233 20.5C478.879 19.6333 478.703 18.6633 478.703 17.59C478.703 16.4967 478.879 15.5233 479.233 14.67C479.593 13.81 480.119 13.1333 480.813 12.64C481.506 12.1467 482.359 11.9 483.373 11.9C484.359 11.9 485.206 12.15 485.913 12.65C486.619 13.15 487.159 13.83 487.533 14.69C487.913 15.55 488.103 16.5167 488.103 17.59C488.103 18.67 487.913 19.64 487.533 20.5C487.153 21.36 486.606 22.0433 485.893 22.55C485.179 23.05 484.319 23.3 483.312 23.3ZM478.453 27.8V12.2H479.773V20.33H479.933V27.8H478.453ZM483.163 21.93C483.916 21.93 484.543 21.74 485.043 21.36C485.543 20.98 485.916 20.4633 486.163 19.81C486.416 19.15 486.543 18.41 486.543 17.59C486.543 16.7767 486.419 16.0433 486.173 15.39C485.926 14.7367 485.549 14.22 485.043 13.84C484.543 13.46 483.906 13.27 483.133 13.27C482.379 13.27 481.753 13.4533 481.253 13.82C480.759 14.1867 480.389 14.6967 480.143 15.35C479.896 15.9967 479.773 16.7433 479.773 17.59C479.773 18.4233 479.896 19.17 480.143 19.83C480.389 20.4833 480.763 20.9967 481.263 21.37C481.763 21.7433 482.396 21.93 483.163 21.93Z" fill="black"/>
    <path d="M600.4 23V8.6H601.75L607.41 20.71L613.04 8.6H614.41V22.99H613.01V11.88L607.88 23H606.93L601.81 11.88V23H600.4ZM620.306 23.3C619.493 23.3 618.81 23.1533 618.256 22.86C617.71 22.5667 617.3 22.1767 617.026 21.69C616.753 21.2033 616.616 20.6733 616.616 20.1C616.616 19.5133 616.733 19.0133 616.966 18.6C617.206 18.18 617.53 17.8367 617.936 17.57C618.35 17.3033 618.826 17.1 619.366 16.96C619.913 16.8267 620.516 16.71 621.176 16.61C621.843 16.5033 622.493 16.4133 623.126 16.34C623.766 16.26 624.326 16.1833 624.806 16.11L624.286 16.43C624.306 15.3633 624.1 14.5733 623.666 14.06C623.233 13.5467 622.48 13.29 621.406 13.29C620.666 13.29 620.04 13.4567 619.526 13.79C619.02 14.1233 618.663 14.65 618.456 15.37L617.026 14.95C617.273 13.9833 617.77 13.2333 618.516 12.7C619.263 12.1667 620.233 11.9 621.426 11.9C622.413 11.9 623.25 12.0867 623.936 12.46C624.63 12.8267 625.12 13.36 625.406 14.06C625.54 14.3733 625.626 14.7233 625.666 15.11C625.706 15.4967 625.726 15.89 625.726 16.29V23H624.416V20.29L624.796 20.45C624.43 21.3767 623.86 22.0833 623.086 22.57C622.313 23.0567 621.386 23.3 620.306 23.3ZM620.476 22.03C621.163 22.03 621.763 21.9067 622.276 21.66C622.79 21.4133 623.203 21.0767 623.516 20.65C623.83 20.2167 624.033 19.73 624.126 19.19C624.206 18.8433 624.25 18.4633 624.256 18.05C624.263 17.63 624.266 17.3167 624.266 17.11L624.826 17.4C624.326 17.4667 623.783 17.5333 623.196 17.6C622.616 17.6667 622.043 17.7433 621.476 17.83C620.916 17.9167 620.41 18.02 619.956 18.14C619.65 18.2267 619.353 18.35 619.066 18.51C618.78 18.6633 618.543 18.87 618.356 19.13C618.176 19.39 618.086 19.7133 618.086 20.1C618.086 20.4133 618.163 20.7167 618.316 21.01C618.476 21.3033 618.73 21.5467 619.076 21.74C619.43 21.9333 619.896 22.03 620.476 22.03ZM632.81 10.92C632.336 10.92 631.903 10.8033 631.51 10.57C631.116 10.3367 630.803 10.0267 630.57 9.64C630.343 9.24667 630.23 8.81333 630.23 8.34H631.45C631.45 8.71333 631.583 9.03333 631.85 9.3C632.116 9.56667 632.436 9.7 632.81 9.7C633.19 9.7 633.51 9.56667 633.77 9.3C634.036 9.03333 634.17 8.71333 634.17 8.34H635.39C635.39 8.81333 635.273 9.24667 635.04 9.64C634.813 10.0267 634.503 10.3367 634.11 10.57C633.716 10.8033 633.283 10.92 632.81 10.92ZM636.91 12.2V23H635.48V14.59L629.56 23H628.32V12.2H629.75V20.54L635.68 12.2H636.91Z" fill="black"/>
    <path d="M761.29 23H759.81V11.19L751.88 23H750.4V8.6H751.88V20.4L759.81 8.6H761.29V23ZM772.591 23.3C771.638 23.3 770.808 23.0967 770.101 22.69C769.395 22.2767 768.831 21.7 768.411 20.96C767.998 20.2133 767.748 19.3367 767.661 18.33H765.551V23H764.081V12.2H765.551V16.87H767.651C767.738 15.85 767.991 14.97 768.411 14.23C768.838 13.4833 769.405 12.91 770.111 12.51C770.825 12.1033 771.655 11.9 772.601 11.9C773.675 11.9 774.591 12.1433 775.351 12.63C776.118 13.1167 776.701 13.7867 777.101 14.64C777.508 15.4933 777.711 16.4733 777.711 17.58C777.711 18.7133 777.505 19.71 777.091 20.57C776.685 21.43 776.098 22.1 775.331 22.58C774.571 23.06 773.658 23.3 772.591 23.3ZM772.561 21.89C773.775 21.89 774.675 21.4967 775.261 20.71C775.855 19.9167 776.151 18.8767 776.151 17.59C776.151 16.2767 775.851 15.2367 775.251 14.47C774.658 13.6967 773.765 13.31 772.571 13.31C771.431 13.31 770.558 13.69 769.951 14.45C769.345 15.2033 769.041 16.2467 769.041 17.58C769.041 18.8867 769.338 19.9333 769.931 20.72C770.531 21.5 771.408 21.89 772.561 21.89ZM779.902 23V12.2H781.372V16.89H787.462V12.2H788.932V23H787.462V18.3H781.372V23H779.902ZM791.738 23L791.718 12.2H793.198V16.27H795.728C796.041 16.27 796.348 16.2767 796.648 16.29C796.955 16.3033 797.225 16.33 797.458 16.37C797.991 16.47 798.465 16.6467 798.878 16.9C799.298 17.1533 799.625 17.5033 799.858 17.95C800.098 18.3967 800.218 18.9567 800.218 19.63C800.218 20.5567 799.978 21.2867 799.498 21.82C799.025 22.3533 798.425 22.7 797.698 22.86C797.425 22.92 797.128 22.96 796.808 22.98C796.488 22.9933 796.171 23 795.858 23H791.738ZM793.198 21.74H795.798C796.025 21.74 796.278 21.7333 796.558 21.72C796.838 21.7067 797.085 21.67 797.298 21.61C797.651 21.51 797.971 21.31 798.258 21.01C798.551 20.7033 798.698 20.2433 798.698 19.63C798.698 19.0233 798.558 18.5667 798.278 18.26C797.998 17.9467 797.625 17.74 797.158 17.64C796.951 17.5933 796.728 17.5633 796.488 17.55C796.248 17.5367 796.018 17.53 795.798 17.53H793.198V21.74Z" fill="black"/>
</svg>