<svg width="800" height="30" viewBox="0 0 821 30" fill="none" xmlns="http://www.w3.org/2000/svg">
    <path d="M6.1 23.3C5.21333 23.3 4.41333 23.0933 3.7 22.68C2.99333 22.2667 2.43333 21.7067 2.02 21C1.60667 20.2867 1.4 19.4867 1.4 18.6V13C1.4 12.1133 1.60667 11.3167 2.02 10.61C2.43333 9.89667 2.99333 9.33333 3.7 8.92C4.41333 8.50667 5.21333 8.3 6.1 8.3C6.98667 8.3 7.78333 8.50667 8.49 8.92C9.20333 9.33333 9.76667 9.89667 10.18 10.61C10.5933 11.3167 10.8 12.1133 10.8 13V18.6C10.8 19.4867 10.5933 20.2867 10.18 21C9.76667 21.7067 9.20333 22.2667 8.49 22.68C7.78333 23.0933 6.98667 23.3 6.1 23.3ZM6.1 21.88C6.69333 21.88 7.23333 21.7367 7.72 21.45C8.20667 21.1567 8.59333 20.7667 8.88 20.28C9.16667 19.7933 9.31 19.2567 9.31 18.67V12.93C9.31 12.3367 9.16667 11.7967 8.88 11.31C8.59333 10.8233 8.20667 10.4367 7.72 10.15C7.23333 9.85667 6.69333 9.71 6.1 9.71C5.50667 9.71 4.96667 9.85667 4.48 10.15C3.99333 10.4367 3.60667 10.8233 3.32 11.31C3.03333 11.7967 2.89 12.3367 2.89 12.93V18.67C2.89 19.2567 3.03333 19.7933 3.32 20.28C3.60667 20.7667 3.99333 21.1567 4.48 21.45C4.96667 21.7367 5.50667 21.88 6.1 21.88ZM16.117 23V10.24L13.407 11.87V10.22L16.117 8.6H17.607V23H16.117Z" fill="black"/>
    <path d="M137.1 23.3C136.213 23.3 135.413 23.0933 134.7 22.68C133.993 22.2667 133.433 21.7067 133.02 21C132.607 20.2867 132.4 19.4867 132.4 18.6V13C132.4 12.1133 132.607 11.3167 133.02 10.61C133.433 9.89667 133.993 9.33333 134.7 8.92C135.413 8.50667 136.213 8.3 137.1 8.3C137.987 8.3 138.783 8.50667 139.49 8.92C140.203 9.33333 140.767 9.89667 141.18 10.61C141.593 11.3167 141.8 12.1133 141.8 13V18.6C141.8 19.4867 141.593 20.2867 141.18 21C140.767 21.7067 140.203 22.2667 139.49 22.68C138.783 23.0933 137.987 23.3 137.1 23.3ZM137.1 21.88C137.693 21.88 138.233 21.7367 138.72 21.45C139.207 21.1567 139.593 20.7667 139.88 20.28C140.167 19.7933 140.31 19.2567 140.31 18.67V12.93C140.31 12.3367 140.167 11.7967 139.88 11.31C139.593 10.8233 139.207 10.4367 138.72 10.15C138.233 9.85667 137.693 9.71 137.1 9.71C136.507 9.71 135.967 9.85667 135.48 10.15C134.993 10.4367 134.607 10.8233 134.32 11.31C134.033 11.7967 133.89 12.3367 133.89 12.93V18.67C133.89 19.2567 134.033 19.7933 134.32 20.28C134.607 20.7667 134.993 21.1567 135.48 21.45C135.967 21.7367 136.507 21.88 137.1 21.88ZM148.857 23.3C148.11 23.3 147.42 23.1467 146.787 22.84C146.154 22.5333 145.614 22.11 145.167 21.57C144.72 21.03 144.4 20.41 144.207 19.71L145.617 19.33C145.744 19.85 145.974 20.3 146.307 20.68C146.64 21.0533 147.03 21.3433 147.477 21.55C147.93 21.7567 148.404 21.86 148.897 21.86C149.537 21.86 150.11 21.7067 150.617 21.4C151.13 21.0867 151.537 20.6733 151.837 20.16C152.137 19.6467 152.287 19.0833 152.287 18.47C152.287 17.8367 152.13 17.2667 151.817 16.76C151.504 16.2467 151.09 15.84 150.577 15.54C150.064 15.24 149.504 15.09 148.897 15.09C148.217 15.09 147.63 15.24 147.137 15.54C146.644 15.8333 146.25 16.2033 145.957 16.65L144.617 16.09L145.057 8.6H152.747V10.01H145.707L146.437 9.32L146.047 15.71L145.677 15.22C146.09 14.7467 146.59 14.3767 147.177 14.11C147.764 13.8433 148.38 13.71 149.027 13.71C149.914 13.71 150.714 13.9233 151.427 14.35C152.14 14.77 152.707 15.34 153.127 16.06C153.547 16.78 153.757 17.5833 153.757 18.47C153.757 19.35 153.534 20.1567 153.087 20.89C152.64 21.6167 152.047 22.2 151.307 22.64C150.567 23.08 149.75 23.3 148.857 23.3Z" fill="black"/>
    <path d="M269.91 23V10.24L267.2 11.87V10.22L269.91 8.6H271.4V23H269.91ZM279.893 23.3C279.006 23.3 278.206 23.0933 277.493 22.68C276.786 22.2667 276.226 21.7067 275.813 21C275.4 20.2867 275.193 19.4867 275.193 18.6V13C275.193 12.1133 275.4 11.3167 275.813 10.61C276.226 9.89667 276.786 9.33333 277.493 8.92C278.206 8.50667 279.006 8.3 279.893 8.3C280.78 8.3 281.576 8.50667 282.283 8.92C282.996 9.33333 283.56 9.89667 283.973 10.61C284.386 11.3167 284.593 12.1133 284.593 13V18.6C284.593 19.4867 284.386 20.2867 283.973 21C283.56 21.7067 282.996 22.2667 282.283 22.68C281.576 23.0933 280.78 23.3 279.893 23.3ZM279.893 21.88C280.486 21.88 281.026 21.7367 281.513 21.45C282 21.1567 282.386 20.7667 282.673 20.28C282.96 19.7933 283.103 19.2567 283.103 18.67V12.93C283.103 12.3367 282.96 11.7967 282.673 11.31C282.386 10.8233 282 10.4367 281.513 10.15C281.026 9.85667 280.486 9.71 279.893 9.71C279.3 9.71 278.76 9.85667 278.273 10.15C277.786 10.4367 277.4 10.8233 277.113 11.31C276.826 11.7967 276.683 12.3367 276.683 12.93V18.67C276.683 19.2567 276.826 19.7933 277.113 20.28C277.4 20.7667 277.786 21.1567 278.273 21.45C278.76 21.7367 279.3 21.88 279.893 21.88Z" fill="black"/>
    <path d="M400.91 23V10.24L398.2 11.87V10.22L400.91 8.6H402.4V23H400.91ZM410.443 23.3C409.696 23.3 409.006 23.1467 408.373 22.84C407.74 22.5333 407.2 22.11 406.753 21.57C406.306 21.03 405.986 20.41 405.793 19.71L407.203 19.33C407.33 19.85 407.56 20.3 407.893 20.68C408.226 21.0533 408.616 21.3433 409.063 21.55C409.516 21.7567 409.99 21.86 410.483 21.86C411.123 21.86 411.696 21.7067 412.203 21.4C412.716 21.0867 413.123 20.6733 413.423 20.16C413.723 19.6467 413.873 19.0833 413.873 18.47C413.873 17.8367 413.716 17.2667 413.403 16.76C413.09 16.2467 412.676 15.84 412.163 15.54C411.65 15.24 411.09 15.09 410.483 15.09C409.803 15.09 409.216 15.24 408.723 15.54C408.23 15.8333 407.836 16.2033 407.543 16.65L406.203 16.09L406.643 8.6H414.333V10.01H407.293L408.023 9.32L407.633 15.71L407.263 15.22C407.676 14.7467 408.176 14.3767 408.763 14.11C409.35 13.8433 409.966 13.71 410.613 13.71C411.5 13.71 412.3 13.9233 413.013 14.35C413.726 14.77 414.293 15.34 414.713 16.06C415.133 16.78 415.343 17.5833 415.343 18.47C415.343 19.35 415.12 20.1567 414.673 20.89C414.226 21.6167 413.633 22.2 412.893 22.64C412.153 23.08 411.336 23.3 410.443 23.3Z" fill="black"/>
    <path d="M529 22.99L529.01 21.65L535.52 15.77C536.08 15.2633 536.45 14.7833 536.63 14.33C536.817 13.87 536.91 13.39 536.91 12.89C536.91 12.2967 536.77 11.76 536.49 11.28C536.21 10.8 535.833 10.42 535.36 10.14C534.887 9.85333 534.357 9.71 533.77 9.71C533.157 9.71 532.61 9.85667 532.13 10.15C531.65 10.4433 531.27 10.83 530.99 11.31C530.717 11.79 530.583 12.3133 530.59 12.88H529.09C529.09 12.0067 529.297 11.2233 529.71 10.53C530.123 9.83667 530.683 9.29333 531.39 8.9C532.097 8.5 532.897 8.3 533.79 8.3C534.663 8.3 535.447 8.50667 536.14 8.92C536.84 9.32667 537.39 9.88 537.79 10.58C538.197 11.2733 538.4 12.0467 538.4 12.9C538.4 13.5 538.327 14.03 538.18 14.49C538.04 14.9433 537.817 15.3667 537.51 15.76C537.21 16.1467 536.827 16.5467 536.36 16.96L530.58 22.18L530.35 21.58H538.4V22.99H529ZM545.506 23.3C544.62 23.3 543.82 23.0933 543.106 22.68C542.4 22.2667 541.84 21.7067 541.426 21C541.013 20.2867 540.806 19.4867 540.806 18.6V13C540.806 12.1133 541.013 11.3167 541.426 10.61C541.84 9.89667 542.4 9.33333 543.106 8.92C543.82 8.50667 544.62 8.3 545.506 8.3C546.393 8.3 547.19 8.50667 547.896 8.92C548.61 9.33333 549.173 9.89667 549.586 10.61C550 11.3167 550.206 12.1133 550.206 13V18.6C550.206 19.4867 550 20.2867 549.586 21C549.173 21.7067 548.61 22.2667 547.896 22.68C547.19 23.0933 546.393 23.3 545.506 23.3ZM545.506 21.88C546.1 21.88 546.64 21.7367 547.126 21.45C547.613 21.1567 548 20.7667 548.286 20.28C548.573 19.7933 548.716 19.2567 548.716 18.67V12.93C548.716 12.3367 548.573 11.7967 548.286 11.31C548 10.8233 547.613 10.4367 547.126 10.15C546.64 9.85667 546.1 9.71 545.506 9.71C544.913 9.71 544.373 9.85667 543.886 10.15C543.4 10.4367 543.013 10.8233 542.726 11.31C542.44 11.7967 542.296 12.3367 542.296 12.93V18.67C542.296 19.2567 542.44 19.7933 542.726 20.28C543.013 20.7667 543.4 21.1567 543.886 21.45C544.373 21.7367 544.913 21.88 545.506 21.88Z" fill="black"/>
    <path d="M664 22.99L664.01 21.65L670.52 15.77C671.08 15.2633 671.45 14.7833 671.63 14.33C671.817 13.87 671.91 13.39 671.91 12.89C671.91 12.2967 671.77 11.76 671.49 11.28C671.21 10.8 670.833 10.42 670.36 10.14C669.887 9.85333 669.357 9.71 668.77 9.71C668.157 9.71 667.61 9.85667 667.13 10.15C666.65 10.4433 666.27 10.83 665.99 11.31C665.717 11.79 665.583 12.3133 665.59 12.88H664.09C664.09 12.0067 664.297 11.2233 664.71 10.53C665.123 9.83667 665.683 9.29333 666.39 8.9C667.097 8.5 667.897 8.3 668.79 8.3C669.663 8.3 670.447 8.50667 671.14 8.92C671.84 9.32667 672.39 9.88 672.79 10.58C673.197 11.2733 673.4 12.0467 673.4 12.9C673.4 13.5 673.327 14.03 673.18 14.49C673.04 14.9433 672.817 15.3667 672.51 15.76C672.21 16.1467 671.827 16.5467 671.36 16.96L665.58 22.18L665.35 21.58H673.4V22.99H664ZM680.056 23.3C679.31 23.3 678.62 23.1467 677.986 22.84C677.353 22.5333 676.813 22.11 676.366 21.57C675.92 21.03 675.6 20.41 675.406 19.71L676.816 19.33C676.943 19.85 677.173 20.3 677.506 20.68C677.84 21.0533 678.23 21.3433 678.676 21.55C679.13 21.7567 679.603 21.86 680.096 21.86C680.736 21.86 681.31 21.7067 681.816 21.4C682.33 21.0867 682.736 20.6733 683.036 20.16C683.336 19.6467 683.486 19.0833 683.486 18.47C683.486 17.8367 683.33 17.2667 683.016 16.76C682.703 16.2467 682.29 15.84 681.776 15.54C681.263 15.24 680.703 15.09 680.096 15.09C679.416 15.09 678.83 15.24 678.336 15.54C677.843 15.8333 677.45 16.2033 677.156 16.65L675.816 16.09L676.256 8.6H683.946V10.01H676.906L677.636 9.32L677.246 15.71L676.876 15.22C677.29 14.7467 677.79 14.3767 678.376 14.11C678.963 13.8433 679.58 13.71 680.226 13.71C681.113 13.71 681.913 13.9233 682.626 14.35C683.34 14.77 683.906 15.34 684.326 16.06C684.746 16.78 684.956 17.5833 684.956 18.47C684.956 19.35 684.733 20.1567 684.286 20.89C683.84 21.6167 683.246 22.2 682.506 22.64C681.766 23.08 680.95 23.3 680.056 23.3Z" fill="black"/>
    <path d="M802.27 23.29C801.557 23.29 800.9 23.1633 800.3 22.91C799.7 22.6567 799.183 22.2967 798.75 21.83C798.317 21.3567 798 20.7933 797.8 20.14L799.2 19.72C799.44 20.4333 799.833 20.9733 800.38 21.34C800.933 21.7067 801.557 21.8833 802.25 21.87C802.89 21.8567 803.44 21.7133 803.9 21.44C804.367 21.1667 804.723 20.7867 804.97 20.3C805.217 19.8133 805.34 19.25 805.34 18.61C805.34 17.63 805.053 16.8433 804.48 16.25C803.913 15.65 803.163 15.35 802.23 15.35C801.97 15.35 801.697 15.3867 801.41 15.46C801.123 15.5267 800.857 15.6233 800.61 15.75L799.87 14.58L805.47 9.41L805.71 10.01H798.37V8.6H806.69V10.03L801.81 14.69L801.79 14.11C802.79 13.9833 803.67 14.0967 804.43 14.45C805.19 14.8033 805.783 15.3433 806.21 16.07C806.643 16.79 806.86 17.6367 806.86 18.61C806.86 19.53 806.66 20.3433 806.26 21.05C805.867 21.75 805.323 22.3 804.63 22.7C803.937 23.0933 803.15 23.29 802.27 23.29ZM814.155 23.3C813.268 23.3 812.468 23.0933 811.755 22.68C811.048 22.2667 810.488 21.7067 810.075 21C809.661 20.2867 809.455 19.4867 809.455 18.6V13C809.455 12.1133 809.661 11.3167 810.075 10.61C810.488 9.89667 811.048 9.33333 811.755 8.92C812.468 8.50667 813.268 8.3 814.155 8.3C815.041 8.3 815.838 8.50667 816.545 8.92C817.258 9.33333 817.821 9.89667 818.235 10.61C818.648 11.3167 818.855 12.1133 818.855 13V18.6C818.855 19.4867 818.648 20.2867 818.235 21C817.821 21.7067 817.258 22.2667 816.545 22.68C815.838 23.0933 815.041 23.3 814.155 23.3ZM814.155 21.88C814.748 21.88 815.288 21.7367 815.775 21.45C816.261 21.1567 816.648 20.7667 816.935 20.28C817.221 19.7933 817.365 19.2567 817.365 18.67V12.93C817.365 12.3367 817.221 11.7967 816.935 11.31C816.648 10.8233 816.261 10.4367 815.775 10.15C815.288 9.85667 814.748 9.71 814.155 9.71C813.561 9.71 813.021 9.85667 812.535 10.15C812.048 10.4367 811.661 10.8233 811.375 11.31C811.088 11.7967 810.945 12.3367 810.945 12.93V18.67C810.945 19.2567 811.088 19.7933 811.375 20.28C811.661 20.7667 812.048 21.1567 812.535 21.45C813.021 21.7367 813.561 21.88 814.155 21.88Z" fill="black"/>
</svg>